<svg width="75" height="65" viewBox="0 0 75 65" fill="none" xmlns="http://www.w3.org/2000/svg">
<path d="M10.7727 52H9.36364C9.2803 51.5947 9.13447 51.2386 8.92614 50.9318C8.72159 50.625 8.47159 50.3674 8.17614 50.1591C7.88447 49.947 7.56061 49.7879 7.20455 49.6818C6.84849 49.5758 6.47727 49.5227 6.09091 49.5227C5.38636 49.5227 4.74811 49.7008 4.17614 50.0568C3.60795 50.4129 3.1553 50.9375 2.81818 51.6307C2.48485 52.3239 2.31818 53.1742 2.31818 54.1818C2.31818 55.1894 2.48485 56.0398 2.81818 56.733C3.1553 57.4261 3.60795 57.9508 4.17614 58.3068C4.74811 58.6629 5.38636 58.8409 6.09091 58.8409C6.47727 58.8409 6.84849 58.7879 7.20455 58.6818C7.56061 58.5758 7.88447 58.4186 8.17614 58.2102C8.47159 57.9981 8.72159 57.7386 8.92614 57.4318C9.13447 57.1212 9.2803 56.7652 9.36364 56.3636H10.7727C10.6667 56.9583 10.4735 57.4905 10.1932 57.9602C9.91288 58.4299 9.56439 58.8295 9.14773 59.1591C8.73106 59.4848 8.26326 59.733 7.74432 59.9034C7.22917 60.0739 6.67803 60.1591 6.09091 60.1591C5.09849 60.1591 4.21591 59.9167 3.44318 59.4318C2.67045 58.947 2.0625 58.2576 1.61932 57.3636C1.17614 56.4697 0.954545 55.4091 0.954545 54.1818C0.954545 52.9545 1.17614 51.8939 1.61932 51C2.0625 50.1061 2.67045 49.4167 3.44318 48.9318C4.21591 48.447 5.09849 48.2045 6.09091 48.2045C6.67803 48.2045 7.22917 48.2898 7.74432 48.4602C8.26326 48.6307 8.73106 48.8807 9.14773 49.2102C9.56439 49.536 9.91288 49.9337 10.1932 50.4034C10.4735 50.8693 10.6667 51.4015 10.7727 52ZM15.4361 60.2045C14.883 60.2045 14.3812 60.1004 13.9304 59.892C13.4796 59.6799 13.1217 59.375 12.8565 58.9773C12.5914 58.5758 12.4588 58.0909 12.4588 57.5227C12.4588 57.0227 12.5573 56.6174 12.7543 56.3068C12.9512 55.9924 13.2145 55.7462 13.544 55.5682C13.8736 55.3902 14.2372 55.2576 14.6349 55.1705C15.0365 55.0795 15.4399 55.0076 15.8452 54.9545C16.3755 54.8864 16.8054 54.8352 17.1349 54.8011C17.4683 54.7633 17.7107 54.7008 17.8622 54.6136C18.0175 54.5265 18.0952 54.375 18.0952 54.1591V54.1136C18.0952 53.553 17.9418 53.1174 17.6349 52.8068C17.3319 52.4962 16.8717 52.3409 16.2543 52.3409C15.6141 52.3409 15.1122 52.4811 14.7486 52.7614C14.3849 53.0417 14.1293 53.3409 13.9815 53.6591L12.7088 53.2045C12.9361 52.6742 13.2391 52.2614 13.6179 51.9659C14.0005 51.6667 14.4171 51.4583 14.8679 51.3409C15.3224 51.2197 15.7694 51.1591 16.2088 51.1591C16.4891 51.1591 16.8111 51.1932 17.1747 51.2614C17.5421 51.3258 17.8963 51.4602 18.2372 51.6648C18.5819 51.8693 18.8679 52.178 19.0952 52.5909C19.3224 53.0038 19.4361 53.5568 19.4361 54.25V60H18.0952V58.8182H18.027C17.9361 59.0076 17.7846 59.2102 17.5724 59.4261C17.3603 59.642 17.0781 59.8258 16.7259 59.9773C16.3736 60.1288 15.9437 60.2045 15.4361 60.2045ZM15.6406 59C16.1709 59 16.6179 58.8958 16.9815 58.6875C17.349 58.4792 17.6255 58.2102 17.8111 57.8807C18.0005 57.5511 18.0952 57.2045 18.0952 56.8409V55.6136C18.0384 55.6818 17.9134 55.7443 17.7202 55.8011C17.5308 55.8542 17.3111 55.9015 17.0611 55.9432C16.8149 55.9811 16.5743 56.0152 16.3395 56.0455C16.1084 56.072 15.9209 56.0947 15.777 56.1136C15.4285 56.1591 15.1027 56.233 14.7997 56.3352C14.5005 56.4337 14.258 56.5833 14.0724 56.7841C13.8906 56.9811 13.7997 57.25 13.7997 57.5909C13.7997 58.0568 13.9721 58.4091 14.3168 58.6477C14.6652 58.8826 15.1065 59 15.6406 59ZM21.8835 60V51.2727H23.179V52.5909H23.2699C23.429 52.1591 23.7169 51.8087 24.1335 51.5398C24.5502 51.2708 25.0199 51.1364 25.5426 51.1364C25.6411 51.1364 25.7642 51.1383 25.9119 51.142C26.0597 51.1458 26.1714 51.1515 26.2472 51.1591V52.5227C26.2017 52.5114 26.0975 52.4943 25.9347 52.4716C25.7756 52.4451 25.607 52.4318 25.429 52.4318C25.0047 52.4318 24.6259 52.5208 24.2926 52.6989C23.9631 52.8731 23.7017 53.1155 23.5085 53.4261C23.3191 53.733 23.2244 54.0833 23.2244 54.4773V60H21.8835ZM31.1165 60.1818C30.3286 60.1818 29.6373 59.9943 29.0426 59.6193C28.4517 59.2443 27.9896 58.7197 27.6562 58.0455C27.3267 57.3712 27.1619 56.5833 27.1619 55.6818C27.1619 54.7727 27.3267 53.9792 27.6562 53.3011C27.9896 52.6231 28.4517 52.0966 29.0426 51.7216C29.6373 51.3466 30.3286 51.1591 31.1165 51.1591C31.9044 51.1591 32.5938 51.3466 33.1847 51.7216C33.7794 52.0966 34.2415 52.6231 34.571 53.3011C34.9044 53.9792 35.071 54.7727 35.071 55.6818C35.071 56.5833 34.9044 57.3712 34.571 58.0455C34.2415 58.7197 33.7794 59.2443 33.1847 59.6193C32.5938 59.9943 31.9044 60.1818 31.1165 60.1818ZM31.1165 58.9773C31.715 58.9773 32.2074 58.8239 32.5938 58.517C32.9801 58.2102 33.2661 57.8068 33.4517 57.3068C33.6373 56.8068 33.7301 56.2652 33.7301 55.6818C33.7301 55.0985 33.6373 54.5549 33.4517 54.0511C33.2661 53.5473 32.9801 53.1402 32.5938 52.8295C32.2074 52.5189 31.715 52.3636 31.1165 52.3636C30.518 52.3636 30.0256 52.5189 29.6392 52.8295C29.2528 53.1402 28.9669 53.5473 28.7812 54.0511C28.5956 54.5549 28.5028 55.0985 28.5028 55.6818C28.5028 56.2652 28.5956 56.8068 28.7812 57.3068C28.9669 57.8068 29.2528 58.2102 29.6392 58.517C30.0256 58.8239 30.518 58.9773 31.1165 58.9773ZM38.4588 54.75V60H37.1179V51.2727H38.4134V52.6364H38.527C38.7315 52.1932 39.0421 51.8371 39.4588 51.5682C39.8755 51.2955 40.4134 51.1591 41.0724 51.1591C41.6634 51.1591 42.1804 51.2803 42.6236 51.5227C43.0668 51.7614 43.4115 52.125 43.6577 52.6136C43.9039 53.0985 44.027 53.7121 44.027 54.4545V60H42.6861V54.5455C42.6861 53.8598 42.508 53.3258 42.152 52.9432C41.7959 52.5568 41.3073 52.3636 40.6861 52.3636C40.258 52.3636 39.8755 52.4564 39.5384 52.642C39.205 52.8277 38.9418 53.0985 38.7486 53.4545C38.5554 53.8106 38.4588 54.2424 38.4588 54.75ZM49.0455 60.2045C48.4924 60.2045 47.9905 60.1004 47.5398 59.892C47.089 59.6799 46.7311 59.375 46.4659 58.9773C46.2008 58.5758 46.0682 58.0909 46.0682 57.5227C46.0682 57.0227 46.1667 56.6174 46.3636 56.3068C46.5606 55.9924 46.8239 55.7462 47.1534 55.5682C47.483 55.3902 47.8466 55.2576 48.2443 55.1705C48.6458 55.0795 49.0492 55.0076 49.4545 54.9545C49.9848 54.8864 50.4148 54.8352 50.7443 54.8011C51.0777 54.7633 51.3201 54.7008 51.4716 54.6136C51.6269 54.5265 51.7045 54.375 51.7045 54.1591V54.1136C51.7045 53.553 51.5511 53.1174 51.2443 52.8068C50.9413 52.4962 50.4811 52.3409 49.8636 52.3409C49.2235 52.3409 48.7216 52.4811 48.358 52.7614C47.9943 53.0417 47.7386 53.3409 47.5909 53.6591L46.3182 53.2045C46.5455 52.6742 46.8485 52.2614 47.2273 51.9659C47.6098 51.6667 48.0265 51.4583 48.4773 51.3409C48.9318 51.2197 49.3788 51.1591 49.8182 51.1591C50.0985 51.1591 50.4205 51.1932 50.7841 51.2614C51.1515 51.3258 51.5057 51.4602 51.8466 51.6648C52.1913 51.8693 52.4773 52.178 52.7045 52.5909C52.9318 53.0038 53.0455 53.5568 53.0455 54.25V60H51.7045V58.8182H51.6364C51.5455 59.0076 51.3939 59.2102 51.1818 59.4261C50.9697 59.642 50.6875 59.8258 50.3352 59.9773C49.983 60.1288 49.553 60.2045 49.0455 60.2045ZM49.25 59C49.7803 59 50.2273 58.8958 50.5909 58.6875C50.9583 58.4792 51.2348 58.2102 51.4205 57.8807C51.6098 57.5511 51.7045 57.2045 51.7045 56.8409V55.6136C51.6477 55.6818 51.5227 55.7443 51.3295 55.8011C51.1402 55.8542 50.9205 55.9015 50.6705 55.9432C50.4242 55.9811 50.1837 56.0152 49.9489 56.0455C49.7178 56.072 49.5303 56.0947 49.3864 56.1136C49.0379 56.1591 48.7121 56.233 48.4091 56.3352C48.1098 56.4337 47.8674 56.5833 47.6818 56.7841C47.5 56.9811 47.4091 57.25 47.4091 57.5909C47.4091 58.0568 47.5814 58.4091 47.9261 58.6477C48.2746 58.8826 48.7159 59 49.25 59ZM56.152 60H54.6747L58.9474 48.3636H60.402L64.6747 60H63.1974L59.7202 50.2045H59.6293L56.152 60ZM56.6974 55.4545H62.652V56.7045H56.6974V55.4545ZM69.9645 60.1818C69.1236 60.1818 68.3982 59.9962 67.7884 59.625C67.1823 59.25 66.7145 58.7273 66.3849 58.0568C66.0592 57.3826 65.8963 56.5985 65.8963 55.7045C65.8963 54.8106 66.0592 54.0227 66.3849 53.3409C66.7145 52.6553 67.1728 52.1212 67.7599 51.7386C68.3509 51.3523 69.0402 51.1591 69.8281 51.1591C70.2827 51.1591 70.7315 51.2348 71.1747 51.3864C71.6179 51.5379 72.0213 51.7841 72.3849 52.125C72.7486 52.4621 73.0384 52.9091 73.2543 53.4659C73.4702 54.0227 73.5781 54.7083 73.5781 55.5227V56.0909H66.8509V54.9318H72.2145C72.2145 54.4394 72.116 54 71.919 53.6136C71.7259 53.2273 71.4493 52.9223 71.0895 52.6989C70.7334 52.4754 70.313 52.3636 69.8281 52.3636C69.294 52.3636 68.8319 52.4962 68.4418 52.7614C68.0554 53.0227 67.758 53.3636 67.5497 53.7841C67.3414 54.2045 67.2372 54.6553 67.2372 55.1364V55.9091C67.2372 56.5682 67.3509 57.1269 67.5781 57.5852C67.8092 58.0398 68.1293 58.3864 68.5384 58.625C68.9474 58.8598 69.4228 58.9773 69.9645 58.9773C70.3168 58.9773 70.6349 58.928 70.919 58.8295C71.2069 58.7273 71.455 58.5758 71.6634 58.375C71.8717 58.1705 72.0327 57.9167 72.1463 57.6136L73.4418 57.9773C73.3054 58.4167 73.0762 58.803 72.7543 59.1364C72.4323 59.4659 72.0346 59.7235 71.5611 59.9091C71.0876 60.0909 70.5554 60.1818 69.9645 60.1818Z" fill="black"/>
<path d="M27 43.875V45.5C27 45.9604 26.8243 46.3464 26.4729 46.6578C26.1215 46.9693 25.6861 47.125 25.1667 47.125H23.3333C22.8139 47.125 22.3785 46.9693 22.0271 46.6578C21.6757 46.3464 21.5 45.9604 21.5 45.5V32.5L25.35 22.75C25.5333 22.2625 25.8618 21.8698 26.3354 21.5719C26.809 21.274 27.3361 21.125 27.9167 21.125H48.0833C48.6639 21.125 49.191 21.274 49.6646 21.5719C50.1382 21.8698 50.4667 22.2625 50.65 22.75L54.5 32.5V45.5C54.5 45.9604 54.3243 46.3464 53.9729 46.6578C53.6215 46.9693 53.1861 47.125 52.6667 47.125H50.8333C50.3139 47.125 49.8785 46.9693 49.5271 46.6578C49.1757 46.3464 49 45.9604 49 45.5V43.875H27ZM26.6333 29.25H49.3667L47.4417 24.375H28.5583L26.6333 29.25ZM29.75 39C30.5139 39 31.1632 38.763 31.6979 38.2891C32.2326 37.8151 32.5 37.2396 32.5 36.5625C32.5 35.8854 32.2326 35.3099 31.6979 34.8359C31.1632 34.362 30.5139 34.125 29.75 34.125C28.9861 34.125 28.3368 34.362 27.8021 34.8359C27.2674 35.3099 27 35.8854 27 36.5625C27 37.2396 27.2674 37.8151 27.8021 38.2891C28.3368 38.763 28.9861 39 29.75 39ZM46.25 39C47.0139 39 47.6632 38.763 48.1979 38.2891C48.7326 37.8151 49 37.2396 49 36.5625C49 35.8854 48.7326 35.3099 48.1979 34.8359C47.6632 34.362 47.0139 34.125 46.25 34.125C45.4861 34.125 44.8368 34.362 44.3021 34.8359C43.7674 35.3099 43.5 35.8854 43.5 36.5625C43.5 37.2396 43.7674 37.8151 44.3021 38.2891C44.8368 38.763 45.4861 39 46.25 39ZM25.1667 40.625H50.8333V32.5H25.1667V40.625Z" fill="#1D1B20"/>
<path d="M66.25 7.58325L53.75 18.4166M53.75 18.4166H66.25M53.75 18.4166V7.58325" stroke="#1E1E1E" stroke-width="4" stroke-linecap="round" stroke-linejoin="round"/>
</svg>
