<svg width="550" height="550" viewBox="0 0 550 550" fill="none" xmlns="http://www.w3.org/2000/svg">
<path fill-rule="evenodd" clip-rule="evenodd" d="M96.3909 300.198C185.09 279.117 342.726 283.463 448.482 309.904C554.238 336.346 568.066 374.871 479.368 395.952C394.953 416.015 248.099 413.049 142.95 389.923C124.773 387.127 107.412 383.723 91.438 379.73C1.19728 357.167 -10.6018 324.294 65.0839 306.306C73.7193 304.253 83.1205 302.483 93.1344 300.991C94.2027 300.725 95.2889 300.46 96.3909 300.198Z" fill="#007AFF" fill-opacity="0.15"/>
<path fill-rule="evenodd" clip-rule="evenodd" d="M103.775 344.976C95.5063 351.176 83.0229 348.985 75.2775 342.142C67.5322 335.3 63.7911 324.948 62.0891 314.754C58.7811 294.941 62.2398 274.06 71.7597 256.372C73.8894 252.415 76.6397 248.346 80.8996 246.915C121.806 233.176 164.197 223.864 207.096 219.195C239.334 215.686 272.151 214.816 304.005 220.89C335.86 226.965 366.855 240.34 390.474 262.56C399.722 271.26 413.234 273.533 425.921 274.046C438.608 274.56 451.645 273.77 463.661 277.874C484.029 284.83 497.164 304.129 508.815 322.226C511.961 327.113 515.138 332.066 516.975 337.58C522.651 354.628 514.873 374.783 523.436 390.579C518.223 392.178 512.624 392.501 507.261 391.511C508.287 396.277 501.961 398.896 497.131 399.554C475.839 402.453 454.547 405.353 433.255 408.252C432.536 406.106 433.202 403.563 434.881 402.046C399.033 398.445 363.162 395.057 327.273 391.883C323.258 391.528 318.492 391.49 316.082 394.722C302.929 412.36 273.288 414.006 258.262 397.934C252.725 392.012 248.644 383.978 241.019 381.224C210.77 370.296 180.521 359.369 150.271 348.441C141.874 345.407 128.937 342.16 111.46 338.699C110.251 338.325 109.381 338.357 108.85 338.796C106.199 340.987 104.48 344.447 103.775 344.976Z" fill="white"/>
<path fill-rule="evenodd" clip-rule="evenodd" d="M66.5186 282.184C68.2686 273.978 78.936 270.249 86.7846 273.215C94.6333 276.181 99.3229 285.032 102.846 292.647C107.653 303.04 109.187 338.973 100.282 345.651C92.0126 351.85 83.0231 348.985 75.2777 342.142C67.5323 335.299 63.7913 324.948 62.0893 314.754C58.7813 294.94 68.5019 275.154 66.5186 282.184Z" fill="#00160A"/>
<path fill-rule="evenodd" clip-rule="evenodd" d="M81.0876 344.719C89.9844 344.719 97.1966 330.141 97.1966 312.158C97.1966 294.175 86.9143 279.843 81.0876 279.597C75.2609 279.351 64.9785 294.175 64.9785 312.158C64.9785 330.141 72.1908 344.719 81.0876 344.719Z" fill="white"/>
<path fill-rule="evenodd" clip-rule="evenodd" d="M306.829 402.844C309.24 401.262 311.459 399.39 313.656 397.503C317.321 394.355 321.04 391.022 323.143 386.597C324.747 383.22 325.302 379.421 325.652 375.675C326.791 363.5 326.873 350.07 323.143 338.466C319.413 326.861 311.77 317.114 302.409 309.668C297.993 306.155 292.951 303.358 287.492 302.232C279.461 300.574 269.843 302.406 262.885 306.881C255.928 311.357 250.737 317.39 246.764 324.812C240.385 336.729 237.926 352.68 241.279 365.859C242.397 370.251 243.949 376.404 245.949 380.446C249.031 386.676 257.262 403.232 272.643 408.014C289.722 413.325 301.604 406.272 306.829 402.844Z" fill="#00160A"/>
<path fill-rule="evenodd" clip-rule="evenodd" d="M287.62 403.32C310.418 399.974 319.933 385.331 319.933 361.898C319.933 338.465 301.813 313.432 281.937 313.432C262.061 313.432 245.949 333.381 245.949 357.989C245.949 382.598 264.821 406.667 287.62 403.32Z" fill="white"/>
<path fill-rule="evenodd" clip-rule="evenodd" d="M163.918 274.401C163.322 273.861 163.416 272.917 163.558 272.126C163.66 271.559 163.963 270.836 164.533 270.917C165.529 271.059 164.873 273.127 165.847 273.381C169.789 274.408 173.69 275.594 177.536 276.935C178.326 277.21 179.107 276.578 179.785 276.089C180.463 275.599 181.543 275.277 182.03 275.957C180.98 276.893 179.819 277.877 178.416 277.972C177.862 278.009 177.31 277.901 176.765 277.791C172.762 276.98 168.793 275.998 164.874 274.847C164.533 274.747 164.181 274.639 163.918 274.401Z" fill="#00160A"/>
<path fill-rule="evenodd" clip-rule="evenodd" d="M234.521 361.898C212.353 353.282 191.146 342.197 171.418 328.913C165.401 324.861 160.939 318.784 157.934 312.181C154.929 305.577 153.296 298.434 152.096 291.279C150.631 282.54 149.786 273.698 149.568 264.84C150.267 264.732 150.592 265.67 150.645 266.375C151.819 282.01 152.609 298.118 159.183 312.352C160.246 314.654 161.595 317.031 163.872 318.148C185.146 328.587 206.42 339.026 227.693 349.466C226.727 350.074 225.473 349.577 224.448 349.073C204.062 339.055 183.675 329.036 163.289 319.017C165.715 323.729 170.245 326.94 174.673 329.852C192.464 341.551 211.41 351.493 231.145 359.487C228.766 356.8 226.229 353.638 226.652 350.074C227.32 350.709 227.655 351.606 228.026 352.449C229.573 355.959 232.063 358.954 234.521 361.898Z" fill="#00160A"/>
<path fill-rule="evenodd" clip-rule="evenodd" d="M500.076 149.653C500.289 149.474 500.623 149.782 500.571 150.056C500.52 150.329 500.264 150.507 500.029 150.656C499.8 150.357 499.804 149.901 500.039 149.607L500.076 149.653Z" fill="#00160A"/>
<path fill-rule="evenodd" clip-rule="evenodd" d="M369.636 295.754C370.023 295.124 370.947 295.202 371.668 295.365C402.248 302.245 430.218 318.229 454.534 338.008C455.231 338.574 455.988 339.272 455.974 340.17C451.866 337.121 447.758 334.071 443.65 331.021C440.92 328.994 438.189 326.967 435.404 325.014C415.634 311.154 393.167 301.159 369.636 295.754Z" fill="#00160A"/>
<path fill-rule="evenodd" clip-rule="evenodd" d="M326.89 304.946C326.276 304.975 325.698 304.688 325.149 304.411C307.566 295.551 288.459 290.213 269.493 284.929C269.847 284.26 270.823 284.37 271.551 284.577C288.864 289.493 306.262 294.44 322.578 302.036C324.165 302.775 325.795 303.58 326.89 304.946V304.946Z" fill="#00160A"/>
<path fill-rule="evenodd" clip-rule="evenodd" d="M258.88 356.855C258.626 357.142 258.143 357.188 257.838 356.955C261.585 345.33 271.463 335.878 283.241 332.646C283.405 333.425 282.465 333.931 281.71 334.184C271.175 337.712 262.482 346.345 258.88 356.855V356.855Z" fill="#00160A"/>
<path fill-rule="evenodd" clip-rule="evenodd" d="M192.179 354.497C197.057 357.221 201.222 361.21 204.152 365.968C203.398 366.392 202.566 365.582 202.065 364.877C198.997 360.565 195.169 356.608 190.323 354.48C174.158 347.381 158.256 339.684 142.661 331.409C143.27 331.099 144 331.395 144.617 331.689C151.139 334.803 157.662 337.918 164.184 341.032C168.6 343.141 173.017 345.249 177.433 347.358C181.101 349.109 184.769 350.86 188.437 352.612C189.697 353.214 190.959 353.816 192.179 354.497Z" fill="#00160A"/>
<path fill-rule="evenodd" clip-rule="evenodd" d="M249.309 337.828C249.904 336.238 250.249 334.495 251.719 333.646C247.226 343.011 245.902 353.599 246.494 363.969C246.569 365.267 246.684 366.566 246.95 367.838C247.386 369.929 248.23 371.934 249.42 373.707C249.385 374.056 248.915 374.212 248.597 374.067C248.278 373.922 248.089 373.595 247.928 373.285C245.112 367.84 244.812 361.442 245.269 355.329C245.382 353.816 245.538 352.305 245.79 350.809C246.54 346.359 247.377 342.024 248.959 337.798L249.309 337.828Z" fill="#00160A"/>
<path fill-rule="evenodd" clip-rule="evenodd" d="M478.135 333.738C478.867 333.751 479.648 333.868 480.191 334.358C480.456 334.598 480.644 334.909 480.824 335.218C481.732 336.774 482.549 338.383 483.268 340.034C482.985 340.676 482.204 340.976 481.506 340.909C480.809 340.843 480.176 340.488 479.572 340.133C477.908 339.153 476.285 338.105 474.708 336.991C474.274 336.685 473.789 336.189 474.012 335.708C474.691 334.244 476.523 333.709 478.135 333.738ZM481.745 340.231C481.893 340.061 482.042 339.89 482.19 339.719C481.692 338.791 481.194 337.863 480.696 336.935C480.263 336.126 479.77 335.262 478.928 334.898C478.285 334.62 477.55 334.687 476.86 334.807C476.399 334.887 475.911 335.006 475.594 335.349C475.276 335.693 475.246 336.332 475.647 336.573C477.68 337.792 479.712 339.012 481.745 340.231Z" fill="#00160A"/>
<path fill-rule="evenodd" clip-rule="evenodd" d="M268.033 358.981C267.622 358.131 267.852 357.119 268.149 356.223C270.459 349.264 276.249 343.983 282.518 340.18C282.806 340.005 283.137 339.826 283.464 339.91C283.791 339.994 283.977 340.499 283.687 340.67C277.498 344.334 271.643 349.358 269.362 356.179C269.031 357.168 268.755 358.228 268.033 358.981Z" fill="#00160A"/>
<path fill-rule="evenodd" clip-rule="evenodd" d="M91.4243 304.289C91.7434 303.664 92.6575 304.349 92.9273 304.997C94.9785 309.922 95.3994 315.511 94.1089 320.688C92.8185 325.866 89.8238 330.603 85.7008 333.99C85.0167 333.663 85.5525 332.638 86.1099 332.124C89.8309 328.696 92.4133 324.053 93.3621 319.084C94.3108 314.114 93.6208 308.846 91.4243 304.289Z" fill="#00160A"/>
<path fill-rule="evenodd" clip-rule="evenodd" d="M72.5241 320.489C72.6312 320.694 72.7415 320.913 72.722 321.144C72.7025 321.374 72.4938 321.604 72.2679 321.555C72.1144 321.521 72.0117 321.379 71.9365 321.241C71.5786 320.585 71.5119 319.776 71.7575 319.07C72.2119 319.367 72.4666 319.942 72.3807 320.478L72.5241 320.489Z" fill="#00160A"/>
<path fill-rule="evenodd" clip-rule="evenodd" d="M102.663 327.515C103.024 327.792 102.811 328.496 102.356 328.526C102.118 328.299 102.259 327.821 102.581 327.76L102.663 327.515Z" fill="#00160A"/>
<path fill-rule="evenodd" clip-rule="evenodd" d="M70.1284 321.237C69.8457 320.505 69.6745 319.462 70.3827 319.125C70.8864 320.539 71.3901 321.952 71.8939 323.366C71.9693 323.578 72.0458 323.803 71.9997 324.023C71.9535 324.243 71.7327 324.442 71.517 324.379C71.3366 324.327 71.2464 324.13 71.1787 323.955C70.8286 323.049 70.4785 322.143 70.1284 321.237Z" fill="#00160A"/>
<path fill-rule="evenodd" clip-rule="evenodd" d="M68.6424 319.806C69.254 320.119 69.1673 320.992 69.1804 321.679C69.2081 323.128 70.0664 324.406 70.7611 325.677C70.8999 325.931 71.0371 326.222 70.9543 326.5C70.8715 326.777 70.4453 326.932 70.2894 326.688C69.2873 325.12 68.5735 323.368 68.1942 321.545C68.0623 320.912 68.0589 320.087 68.6424 319.806V319.806Z" fill="#00160A"/>
<path fill-rule="evenodd" clip-rule="evenodd" d="M174.075 236.672C153.732 240.402 133.519 245.949 115.292 255.722C114.783 254.999 115.718 254.141 116.514 253.756C138.381 243.184 162.116 236.491 186.284 234.079C191.891 233.52 197.604 233.194 203.12 234.347C216.985 237.243 227.526 249.221 232.656 262.423C235.574 269.934 237.533 278.624 244.158 283.212C237.305 282.445 230.728 280.153 224.218 277.878C221.684 276.992 219.15 276.106 216.617 275.221C211.398 273.396 206.18 271.572 200.962 269.748C207.028 270.735 212.994 272.339 218.736 274.529C218.278 273.222 217.376 272.074 216.214 271.319C207.218 269.004 197.761 268.498 188.569 269.839C186.8 270.097 186.248 267.578 185.209 266.123C184.203 264.714 182.388 264.191 180.711 263.76C169.09 260.775 157.47 257.789 145.849 254.803C146.349 254.271 147.205 254.375 147.92 254.523C160.004 257.02 171.955 260.162 183.704 263.931C182.855 262.186 182.006 260.441 181.157 258.696C181.025 258.424 180.889 258.128 180.944 257.831C181.021 257.414 181.435 257.158 181.811 256.962C192.476 251.376 205.411 250.293 216.856 254.029C218.435 254.544 220.253 255.495 220.322 257.155C220.576 263.349 225.463 268.229 230.021 272.432C232.039 274.292 234.132 276.2 236.719 277.116C234.411 269.933 232.081 262.704 228.501 256.063C224.921 249.421 219.98 243.33 213.459 239.534C201.831 232.765 187.31 234.246 174.075 236.672ZM217.906 257.033C217.538 256.363 217.096 255.631 216.359 255.429C211.38 254.058 206.262 252.675 201.124 253.189C198.622 253.439 196.189 254.134 193.772 254.826C190.364 255.802 186.957 256.777 183.549 257.753C183.261 257.835 182.928 257.963 182.856 258.253C182.805 258.462 182.914 258.673 183.019 258.861C184.471 261.439 185.923 264.018 187.375 266.597C187.659 267.101 187.971 267.633 188.486 267.895C188.879 268.095 189.337 268.11 189.778 268.113C196.124 268.159 202.569 266.664 208.751 268.1C210.379 268.478 211.966 269.057 213.624 269.266C215.282 269.475 217.085 269.265 218.392 268.222C219.985 266.951 220.499 264.684 220.191 262.67C219.882 260.655 218.886 258.82 217.906 257.033ZM241.652 281.54C240.125 279.382 237.306 278.689 234.954 277.482C229.776 274.825 226.61 269.416 221.931 265.955C221.063 267.394 219.833 268.613 218.387 269.468C217.999 269.697 217.538 270.002 217.573 270.451C217.588 270.642 217.696 270.812 217.802 270.972C218.498 272.031 219.194 273.089 219.89 274.147C220.33 274.816 220.785 275.502 221.439 275.964C222.016 276.372 222.707 276.578 223.384 276.778C229.466 278.569 235.548 280.36 241.63 282.151C241.865 282.095 241.792 281.738 241.652 281.54V281.54Z" fill="#00160A"/>
<path fill-rule="evenodd" clip-rule="evenodd" d="M68.9604 315.586C67.613 311.713 67.7704 307.408 68.9719 303.487C70.1734 299.566 72.3732 296.005 74.9992 292.854C75.2083 292.603 75.4252 292.351 75.7036 292.18C75.9181 292.048 76.1649 291.97 76.4161 291.953C76.587 292.459 76.2299 292.976 75.8984 293.394C73.7345 296.123 71.7545 299.04 70.4717 302.277C69.1888 305.515 68.633 309.108 69.3592 312.514C69.588 313.587 69.8459 314.938 68.9604 315.586H68.9604Z" fill="#00160A"/>
<path fill-rule="evenodd" clip-rule="evenodd" d="M91.7309 310.963C93.0527 316.923 90.7153 323.543 85.9442 327.352C85.8878 327.397 85.8297 327.442 85.7613 327.465C85.4896 327.555 85.2323 327.221 85.2765 326.938C85.3206 326.655 85.5444 326.44 85.7521 326.243C86.9406 325.114 88.0054 323.848 88.8497 322.443C90.7263 319.321 91.4528 315.525 90.8616 311.93C90.8064 311.595 90.7472 311.224 90.9321 310.939C91.1169 310.654 91.6574 310.632 91.7309 310.963Z" fill="#00160A"/>
<path fill-rule="evenodd" clip-rule="evenodd" d="M89.4234 292.12C89.5348 292.347 89.6396 292.611 89.5468 292.846C89.4541 293.081 89.0613 293.172 88.9593 292.941C88.432 291.743 87.5796 290.691 86.5178 289.926C86.2188 289.711 86.5051 289.179 86.8731 289.161C87.2411 289.142 87.5489 289.425 87.7943 289.699C88.4442 290.427 88.994 291.244 89.4234 292.12Z" fill="#00160A"/>
<path fill-rule="evenodd" clip-rule="evenodd" d="M87.5378 287.708C87.2982 287.494 87.5833 287.058 87.9044 287.061C88.2254 287.065 88.4811 287.32 88.6905 287.564C89.9293 289.004 90.8993 290.675 91.536 292.465C91.6268 292.72 91.7085 293.012 91.581 293.251C91.4534 293.49 91.0195 293.531 90.9503 293.269C90.3864 291.136 89.1839 289.176 87.5378 287.708Z" fill="#00160A"/>
<path fill-rule="evenodd" clip-rule="evenodd" d="M87.483 294.623C86.9307 294.163 86.3784 293.704 85.8261 293.244C85.6038 293.059 85.8452 292.659 86.1341 292.648C86.4229 292.637 86.6655 292.851 86.8739 293.051C87.2059 293.37 87.5379 293.689 87.8699 294.007C88.094 294.223 88.304 294.632 88.0357 294.788C87.8581 294.892 87.6411 294.754 87.483 294.623V294.623Z" fill="#00160A"/>
<path fill-rule="evenodd" clip-rule="evenodd" d="M315.027 365.875C313.999 371.849 310.775 377.42 306.107 381.289C303.532 383.423 300.563 385.034 297.515 386.412C294.056 387.974 290.47 389.253 286.803 390.23C286.855 389.262 287.984 388.792 288.918 388.528C294.369 386.986 299.733 384.85 304.247 381.428C308.761 378.006 312.384 373.185 313.561 367.644C313.738 366.808 314.188 365.713 315.027 365.875Z" fill="#00160A"/>
<path fill-rule="evenodd" clip-rule="evenodd" d="M82.6025 313.354C81.8824 313.58 81.0684 313.32 80.506 312.817C79.9435 312.314 79.6062 311.6 79.4167 310.869C79.2457 310.21 79.1838 309.523 79.2343 308.845C79.3277 307.59 79.8051 306.38 80.5116 305.34C80.8668 304.816 81.3168 304.308 81.9248 304.133C82.9422 303.842 84.0062 304.63 84.4437 305.593C84.8565 306.503 84.8707 307.538 84.829 308.536C84.7741 309.847 84.6145 311.215 83.8842 312.305C83.5709 312.772 83.1396 313.185 82.6025 313.354ZM82.1757 305.237C80.1133 306.658 79.4905 309.796 80.8539 311.898C81.1475 312.35 81.6006 312.789 82.1381 312.745C82.7697 312.694 83.1428 312.027 83.3658 311.433C84.1072 309.462 84.3951 307.079 83.1506 305.379C83.0467 305.237 82.9206 305.094 82.7491 305.055C82.5475 305.009 82.3459 305.12 82.1757 305.237V305.237Z" fill="#00160A"/>
<path fill-rule="evenodd" clip-rule="evenodd" d="M77.3949 297.041C74.7856 299.244 73.5904 302.662 72.6475 305.944C72.1926 307.527 71.7673 309.135 71.6868 310.781C71.6521 311.491 71.6482 312.29 71.1398 312.788C70.5803 312.54 70.525 311.778 70.575 311.168C70.9908 306.086 72.7955 301.125 75.7419 296.963C76.0171 296.575 76.3609 296.158 76.8356 296.12C77.3103 296.081 77.7588 296.734 77.3949 297.041Z" fill="#00160A"/>
<path fill-rule="evenodd" clip-rule="evenodd" d="M275.453 374.367C275.698 374.594 275.41 375.044 275.076 375.052C274.742 375.061 274.464 374.811 274.232 374.571C272.729 373.016 271.518 371.179 270.682 369.185C270.913 368.906 271.377 368.946 271.664 369.167C271.95 369.389 272.107 369.734 272.264 370.06C273.048 371.677 274.135 373.146 275.453 374.367Z" fill="#00160A"/>
<path fill-rule="evenodd" clip-rule="evenodd" d="M277.145 371.823C276.134 370.975 275.278 369.942 274.633 368.79C274.55 368.641 274.468 368.474 274.503 368.307C274.562 368.027 274.937 367.917 275.201 368.026C275.466 368.135 275.642 368.385 275.802 368.622C276.413 369.523 277.023 370.424 277.634 371.325C277.471 371.491 277.308 371.657 277.145 371.823Z" fill="#00160A"/>
<path fill-rule="evenodd" clip-rule="evenodd" d="M267.075 371.15C267.487 372.362 267.99 373.543 268.578 374.679C269.378 376.225 270.343 377.697 271.562 378.939C271.82 379.203 271.454 379.68 271.086 379.646C270.718 379.612 270.449 379.295 270.227 379C268.88 377.208 267.703 375.287 266.718 373.272C266.533 372.893 266.351 372.493 266.366 372.072C266.38 371.651 266.658 371.208 267.075 371.15V371.15Z" fill="#00160A"/>
<path fill-rule="evenodd" clip-rule="evenodd" d="M140.962 259.75C139.54 272.075 141.766 284.497 143.983 296.704C144.36 298.779 144.738 300.856 145.245 302.903C146.864 309.425 149.819 315.612 153.874 320.97C154.411 321.679 154.97 322.697 154.387 323.369C146.86 318.693 139.503 313.743 132.336 308.533C131.682 308.058 130.995 307.534 130.729 306.771C125.409 291.483 123.763 275.201 122.154 259.094C122.128 258.832 122.103 258.559 122.194 258.312C122.352 257.886 122.802 257.655 123.214 257.465C128.782 254.887 134.35 252.309 139.918 249.731C143.435 248.103 147.02 246.454 150.864 245.955C149.308 247.326 147.343 248.225 145.289 248.506C144.158 248.661 143.247 249.573 142.775 250.612C142.303 251.651 142.194 252.813 142.091 253.95C144.823 252.064 147.555 250.177 150.287 248.291C150.987 247.808 152.188 247.459 152.482 248.257C149.351 250.197 146.282 252.239 143.284 254.379C141.647 255.548 141.193 257.752 140.962 259.75ZM148.686 314.619C147.768 313.05 146.847 311.473 146.172 309.786C145.408 307.875 144.971 305.852 144.537 303.84C142.629 294.984 140.717 286.101 139.903 277.078C139.089 268.055 139.398 258.839 141.874 250.124C139.059 251.128 136.361 252.427 133.669 253.724C130.335 255.331 127.002 256.937 123.668 258.543C123.504 258.622 123.333 258.708 123.235 258.861C123.115 259.05 123.137 259.292 123.163 259.514C123.637 263.515 124.11 267.516 124.584 271.516C125.305 277.611 126.028 283.713 127.211 289.736C128.107 294.293 129.266 298.798 130.68 303.222C131.307 305.18 132.085 307.261 133.793 308.406C139.969 312.55 146.146 316.693 152.323 320.837C151.111 318.764 149.898 316.691 148.686 314.619Z" fill="#00160A"/>
<path fill-rule="evenodd" clip-rule="evenodd" d="M301.333 345.318C302.408 346.35 303.282 347.589 303.893 348.948C303.951 349.078 304.008 349.217 303.99 349.358C303.943 349.704 303.454 349.824 303.151 349.649C302.849 349.474 302.691 349.133 302.538 348.819C301.882 347.484 300.959 346.28 299.838 345.302C299.853 344.986 300.223 344.784 300.536 344.832C300.849 344.88 301.105 345.099 301.333 345.318Z" fill="#00160A"/>
<path fill-rule="evenodd" clip-rule="evenodd" d="M306.268 363.279C306.361 363.041 306.757 363.104 306.875 363.331C306.992 363.558 306.921 363.833 306.842 364.076C304.513 371.281 297.936 376.374 290.968 379.336C290.617 379.486 290.214 379.631 289.866 379.475C289.517 379.319 289.423 378.708 289.787 378.595C297.191 376.288 303.425 370.494 306.268 363.279Z" fill="#00160A"/>
<path fill-rule="evenodd" clip-rule="evenodd" d="M298.181 349.241C298.846 350.075 299.37 351.021 299.724 352.027C299.758 352.123 299.791 352.228 299.761 352.325C299.657 352.664 299.143 352.43 298.919 352.155C298.225 351.304 297.532 350.453 296.838 349.602C296.728 349.467 296.613 349.32 296.598 349.147C296.567 348.791 296.997 348.537 297.346 348.609C297.695 348.68 297.959 348.962 298.181 349.241Z" fill="#00160A"/>
<path fill-rule="evenodd" clip-rule="evenodd" d="M308.069 347.199C307.696 346.964 307.579 346.486 307.47 346.059C306.879 343.738 305.611 341.593 303.862 339.956C303.614 339.723 303.341 339.476 303.273 339.143C303.205 338.809 303.48 338.395 303.811 338.476C303.94 338.507 304.042 338.602 304.136 338.695C306.039 340.56 307.512 342.861 308.41 345.37C308.643 346.02 308.716 346.956 308.069 347.199V347.199Z" fill="#00160A"/>
<path fill-rule="evenodd" clip-rule="evenodd" d="M285.817 356C286.952 355.82 288.155 356.113 289.081 356.794C289.455 357.069 289.783 357.402 290.063 357.771C290.984 358.984 291.359 360.595 291.07 362.09C290.78 363.584 289.83 364.939 288.523 365.72C288.21 365.907 287.873 366.064 287.513 366.12C287.241 366.162 286.963 366.145 286.691 366.1C285.329 365.876 284.139 364.953 283.415 363.778C282.38 362.1 282.264 359.893 283.118 358.116C283.418 357.493 283.838 356.912 284.413 356.527C284.831 356.247 285.319 356.079 285.817 356ZM288.296 364.154C288.906 363.525 289.341 362.728 289.538 361.874C289.868 360.445 289.441 358.782 288.247 357.93C287.052 357.078 285.109 357.36 284.435 358.663C283.872 359.753 283.803 361.087 284.251 362.229C284.699 363.371 285.657 364.302 286.811 364.718C287.339 364.908 287.905 364.556 288.296 364.154V364.154Z" fill="#00160A"/>
<path fill-rule="evenodd" clip-rule="evenodd" d="M279.95 350.602C283.76 347.776 289.519 347.753 293.354 350.548C298.42 343.857 302.662 336.582 305.963 328.925C306.546 327.573 305.362 326.16 304.272 325.145C299.334 320.542 294.045 315.802 287.397 314.196C280.723 312.583 272.846 313.763 267.011 317.293C261.176 320.823 256.511 325.888 252.238 331.113C252.086 330.051 252.829 329.084 253.54 328.264C257.902 323.232 262.8 318.485 268.782 315.39C274.765 312.296 282.672 311.687 289.113 313.745C291.082 314.374 292.939 315.299 294.716 316.335C303.746 321.602 310.748 329.8 315.36 338.984C319.972 348.169 322.291 358.317 323.186 368.495C323.421 371.173 323.56 373.883 323.131 376.539C322.724 379.059 321.812 381.481 320.679 383.783C317.532 390.176 312.579 395.772 306.358 399.489C295.861 405.76 282.076 406.197 270.891 401.165C259.707 396.133 251.284 385.949 248.004 374.429C258.025 372.218 267.661 368.381 276.39 363.126C274.61 358.808 276.139 353.427 279.95 350.602ZM302.154 400.206C301.913 400.056 301.567 400.2 301.473 400.489C301.966 400.503 302.461 400.313 302.844 399.965C302.677 399.661 302.161 399.82 302.158 400.177L302.154 400.206ZM264.456 396.056C270.381 400.151 277.442 402.834 284.725 403.191C289.399 403.42 294.121 402.691 298.487 401.067C300.224 400.421 301.901 399.636 303.576 398.853C305.499 397.953 307.436 397.046 309.145 395.809C310.244 395.013 311.237 394.089 312.187 393.131C315.794 389.491 318.849 385.252 320.498 380.477C323.839 370.805 321.115 360.265 318.265 350.449C311.514 351.124 304.915 353.18 299.033 356.442C300.627 361.018 299.743 366.471 296.284 369.963C292.826 373.456 286.764 374.483 282.567 371.847C281.767 371.344 280.738 371.978 280.033 372.599C274.169 377.772 269.547 384.245 266.63 391.371C265.977 392.965 265.401 394.604 264.456 396.056ZM279.135 371.166C279.322 370.985 279.523 370.781 279.536 370.524C279.547 370.312 279.427 370.119 279.312 369.94C278.065 368.013 276.818 366.086 275.571 364.159C267.425 369.44 258.251 373.196 248.69 375.165C251.832 382.78 256.856 389.644 263.211 395.006C266.692 386.065 272.164 377.873 279.135 371.166ZM280.467 369.496C282.84 371.566 286.17 372.708 289.377 372.304C290.263 372.192 291.136 371.967 291.944 371.606C292.685 371.276 293.367 370.835 293.997 370.34C296.455 368.408 298.125 365.611 298.6 362.632C298.921 360.614 298.681 358.458 297.555 356.714C297.119 356.04 296.563 355.442 296.011 354.848C294.848 353.6 293.667 352.337 292.205 351.407C289.452 349.656 285.773 349.271 282.679 350.411C279.584 351.55 277.16 354.182 276.401 357.226C276.055 358.615 276.039 360.064 276.237 361.478C276.658 364.497 278.095 367.425 280.467 369.496ZM317.925 348.947C316.33 341.48 312.822 334.399 307.799 328.513C304.74 336.294 300.311 343.573 294.761 349.942C294.467 350.28 294.682 350.789 294.906 351.173C295.471 352.142 296.058 353.137 296.963 353.826C297.868 354.514 299.18 354.828 300.188 354.289C305.645 351.377 311.719 349.547 317.925 348.947Z" fill="#00160A"/>
<path fill-rule="evenodd" clip-rule="evenodd" d="M392.946 280.525C353.642 280.614 314.338 280.704 275.034 280.794C264.61 280.817 254.86 274.999 247.81 267.321C240.76 259.642 235.504 248.942 230.82 239.629C234.716 238.493 239.637 239.522 243.589 238.585C253.276 236.29 261.378 232.141 271.173 230.73C294.143 227.42 319.001 228.987 342.158 231.78C313.908 223.001 284.415 218.236 254.838 217.67C222.826 217.058 190.889 221.34 159.485 227.582C132.922 232.863 106.639 239.552 80.7835 247.613C86.3643 247.014 94.2652 247.939 95.2267 254.492C92.2739 247.811 82.1058 247.476 76.4409 252.087C70.776 256.698 68.5012 264.186 66.518 271.216C68.2679 263.01 78.9353 259.281 86.7839 262.247C94.6326 265.213 99.8325 272.717 103.355 280.332C108.163 290.725 110.774 302.026 112.169 313.391C113.562 324.738 112.922 338.118 103.775 344.976C95.5058 351.176 83.0224 348.985 75.277 342.142C67.5317 335.3 63.7906 324.948 62.0886 314.754C58.7806 294.941 62.2393 274.06 71.7592 256.372C73.8889 252.415 76.6392 248.346 80.8991 246.915C121.805 233.176 164.197 223.864 207.095 219.195C239.334 215.686 272.15 214.816 304.005 220.89C335.86 226.965 366.855 240.34 390.474 262.56C399.722 271.26 413.234 273.533 425.921 274.046C438.607 274.56 451.644 273.77 463.66 277.874C484.029 284.83 497.164 304.129 508.814 322.226C511.96 327.113 515.138 332.066 516.974 337.58C522.651 354.628 514.873 374.783 523.436 390.579C518.223 392.178 512.623 392.501 507.261 391.511C508.287 396.277 501.96 398.896 497.13 399.554C475.838 402.453 454.547 405.353 433.255 408.252C432.535 406.106 433.202 403.563 434.881 402.046C399.032 398.445 363.162 395.057 327.273 391.883C323.257 391.528 318.491 391.49 316.081 394.722C302.928 412.36 273.287 414.006 258.261 397.934C252.725 392.012 248.643 383.978 241.019 381.224C210.77 370.296 180.52 359.369 150.271 348.441C137.675 343.891 124.839 339.291 111.459 338.699C119.324 336.67 127.542 339.439 135.189 342.174C171.542 355.174 207.896 368.175 244.249 381.176C239.926 366.111 237.748 349.923 241.909 334.813C246.07 319.703 257.611 305.934 272.919 302.574C292.677 298.236 313.002 312.662 320.938 331.269C328.874 349.877 326.848 371.256 321.831 390.852C339.746 390.044 357.748 391.168 375.424 394.198C364.701 375.877 356.02 356.36 349.595 336.127C357.631 353.507 365.667 370.886 373.703 388.265C375.455 392.054 378.116 396.444 382.289 396.339C373.143 377.157 363.996 357.975 354.85 338.792C407.272 348.739 461.52 358.233 513.545 346.383C497.802 346.255 482.23 350.25 466.489 349.966C449.132 349.653 431.909 343.981 417.763 333.92C419.527 336.62 414.794 338.752 411.574 338.569C395.877 337.674 380.18 336.779 364.483 335.884C359.521 335.601 354.367 335.265 350.021 332.854C342.396 328.622 339.379 319.379 337.01 310.985C365.211 312.839 392.99 320.864 417.835 334.335C446.141 349.682 480.622 353.217 511.453 343.931C505.195 324.042 498.177 302.996 482.06 289.769C463.304 274.376 436.872 273.318 412.635 274.45C447.013 283.009 477.895 304.88 497.382 334.466C477.198 306.205 447.31 285.012 413.961 275.316C410.148 274.208 405.151 273.657 403.034 277.016C401.048 280.167 396.671 280.516 392.946 280.525ZM261.736 313.138C270.544 307.29 282.172 305.217 291.961 309.213C294.454 310.23 296.787 311.608 299.002 313.14C307.206 318.813 313.871 326.69 318.109 335.72C323.266 346.707 324.771 359.051 325.156 371.182C325.47 367.827 325.609 364.456 325.574 361.086C325.445 348.706 322.85 336.148 316.522 325.508C310.193 314.867 299.866 306.313 287.777 303.644C275.688 300.976 261.997 304.842 254.21 314.467C251.898 317.324 250.14 320.583 248.481 323.862C246.179 328.411 244.022 333.095 242.985 338.087C246.744 328.205 252.927 318.987 261.736 313.138ZM232.56 240.382C237.932 250.872 243.457 261.573 251.961 269.733C260.466 277.893 272.652 283.187 284.118 280.457C295.762 277.684 307.893 278.049 319.857 278.43C340.978 279.102 362.099 279.775 383.22 280.447C391.143 280.699 400.412 280.328 405.041 273.893C393.723 266.529 383.659 257.416 372.762 249.442C361.866 241.469 349.784 234.509 336.451 232.376C330.681 231.453 324.807 231.456 318.963 231.461C306.725 231.471 294.486 231.482 282.248 231.492C277.259 231.497 272.208 231.508 267.374 232.744C263.506 233.732 259.881 235.478 256.131 236.845C248.616 239.584 240.548 240.795 232.56 240.382ZM376.227 363.699C379.66 374.137 383.61 384.406 388.057 394.455C388.46 395.366 389.043 396.407 390.036 396.494C406.351 397.923 422.666 399.353 438.981 400.782C439.698 400.845 440.452 400.902 441.108 400.606C441.704 400.337 442.139 399.813 442.552 399.307C446.203 394.825 449.854 390.343 453.506 385.861C449.8 380.569 443.857 377.182 437.667 375.331C431.477 373.481 424.972 373.015 418.531 372.501C417.661 372.432 416.476 371.637 417.093 371.019C423.499 371.363 429.88 372.168 436.171 373.427C440.474 374.288 445.033 375.538 447.867 378.888C451.672 371.846 455.477 364.803 459.281 357.76C477.804 355.345 496.262 352.44 514.631 349.047C498.881 350.458 483.13 351.868 467.38 353.279C463.889 353.591 460.393 353.904 456.888 353.915C452.523 353.927 448.172 353.471 443.831 353.015C438.562 352.462 433.293 351.909 428.024 351.356C404.266 348.861 380.392 346.346 357.323 340.143C364.948 358.619 373.72 376.621 383.572 394.012C384.336 395.36 385.787 396.921 387.136 396.158C380.231 379.979 374.255 363.402 369.249 346.538C368.904 345.376 368.637 343.925 369.539 343.116C371.724 349.634 373.845 356.174 375.902 362.734C387.305 362.834 398.694 364.42 409.691 367.44C414.195 368.678 419.372 370.06 423.238 367.439C418.693 362.996 413.004 359.733 406.874 358.052C403.436 357.109 399.885 356.659 396.348 356.212C388.705 355.247 381.062 354.281 373.419 353.315C383.983 352.475 394.554 354.338 404.988 356.192C407.048 356.559 409.125 356.929 411.07 357.702C413.119 358.516 414.968 359.755 416.799 360.984C420.021 363.147 423.243 365.309 426.465 367.472C424.007 369.635 420.543 370.337 417.273 370.156C414.004 369.975 410.838 369.008 407.664 368.202C397.392 365.595 386.783 364.642 376.227 363.699ZM275.974 408.372C276.682 408.62 277.593 408.798 278.078 408.226C276.014 408.032 274.021 407.152 272.487 405.757C282.916 410.257 295.539 409.264 305.136 403.189C307.485 401.702 309.648 399.942 311.789 398.167C315.36 395.208 318.984 392.074 321.034 387.913C322.597 384.739 323.138 381.167 323.479 377.645C324.589 366.199 323.773 354.472 320.138 343.562C316.503 332.652 309.951 322.588 300.828 315.587C296.525 312.285 291.612 309.655 286.292 308.596C278.466 307.037 270.159 309.031 263.379 313.239C256.599 317.447 251.273 323.739 247.401 330.717C241.184 341.922 238.588 355.425 241.856 367.815C242.945 371.945 244.654 375.889 246.603 379.689C253.001 392.167 262.743 403.726 275.974 408.372ZM452.809 388.979C449.295 393.705 445.307 398.054 441.326 402.393C440.673 403.104 439.416 403.783 438.914 402.959C438.448 402.196 437.292 402.138 436.526 402.599C435.761 403.06 435.294 403.877 434.86 404.659C434.518 405.276 434.175 405.893 433.833 406.51C455.88 403.962 477.875 400.964 499.8 397.519C501.467 397.257 503.303 396.894 504.318 395.546C504.717 395.015 504.946 394.378 505.167 393.751C507.509 387.099 509.569 380.347 511.339 373.52C507.138 374.69 502.937 375.86 498.735 377.03C497.029 377.505 495.322 377.98 493.6 378.394C482.364 381.095 470.62 381.153 459.396 383.902C458.639 384.088 457.88 384.287 457.178 384.626C455.308 385.531 454.049 387.312 452.809 388.979ZM416.72 336.954C408.853 329.369 398.058 325.799 387.653 322.457C383.71 321.191 379.767 319.924 375.823 318.658C373.452 317.896 371.08 317.134 368.679 316.469C358.752 313.715 348.443 312.632 338.171 311.847C338.031 311.836 337.883 311.827 337.755 311.885C337.353 312.069 337.48 312.669 337.673 313.067C339.94 317.749 342.421 322.327 345.106 326.781C346.266 328.706 347.495 330.644 349.231 332.071C351.542 333.97 354.573 334.802 357.556 335.017C360.539 335.232 363.53 334.883 366.514 334.678C373.157 334.223 379.85 334.489 386.436 335.471C390.031 336.007 393.592 336.754 397.196 337.219C403.673 338.053 410.268 337.964 416.72 336.954ZM503.45 374.106C506.069 373.408 508.731 372.869 511.415 372.494C512.621 368.025 513.828 363.556 515.034 359.086C512.501 359.82 509.931 360.428 507.337 360.907C505.282 361.286 503.214 361.585 501.144 361.873C486.502 363.908 471.783 365.392 457.029 366.322C456.216 366.373 455.707 367.198 455.338 367.925C453.44 371.668 451.542 375.411 449.644 379.154C449.498 379.442 449.349 379.768 449.449 380.074C449.519 380.287 449.697 380.443 449.867 380.589C450.731 381.329 451.594 382.068 452.458 382.808C453.274 383.506 454.318 384.252 455.327 383.884C467.371 379.494 480.694 380.312 493.11 377.126C496.589 376.234 499.98 375.03 503.45 374.106ZM76.6316 318.918C74.6805 322.703 72.7294 326.487 70.7783 330.272C70.4305 330.947 70.0732 331.663 70.1164 332.421C70.1496 333.002 70.4168 333.542 70.6952 334.054C73.6479 339.478 78.5344 343.824 84.2665 346.124C84.9865 346.413 85.7587 346.674 86.5241 346.548C87.4954 346.388 88.2531 345.643 88.9101 344.91C94.9073 338.22 98.268 329.346 98.7901 320.377C99.3122 311.408 97.0812 302.374 92.9651 294.387C92.19 295.179 91.4149 295.97 90.6398 296.761C88.9154 298.521 87.0473 300.848 87.8507 303.178C89.5736 308.173 89.4639 314.059 86.4095 318.371C85.0466 320.295 82.786 321.928 80.481 321.432C79.0797 321.131 77.9485 320.098 77.0609 318.972C75.9959 317.622 75.1747 316.08 74.6485 314.443C72.8074 316.848 70.2267 318.679 67.3483 319.622C66.2188 319.992 66.2362 321.583 66.5108 322.74C67.2117 325.691 68.1207 328.593 69.2288 331.416C70.8518 327.316 72.8679 323.371 75.2404 319.653C75.5557 319.159 76.1378 318.602 76.6316 318.918ZM85.3968 281.122C91.67 286.983 95.1638 295.213 97.6638 303.426C98.1926 305.163 98.6854 306.913 99.066 308.688C101.962 322.196 97.8511 337.012 88.409 347.096C91.9392 346.945 95.4417 346.166 98.7028 344.805C99.3573 344.532 100.018 344.225 100.515 343.719C101.269 342.952 101.538 341.846 101.778 340.797C103.273 334.243 104.775 327.648 105.106 320.933C105.569 311.538 103.722 302.155 100.934 293.171C100.401 291.455 99.8331 289.747 99.1481 288.085C96.9115 282.658 93.4171 277.754 89.0179 273.868C86.342 271.504 82.7781 269.416 79.3646 270.462C77.2491 271.11 75.6624 272.844 74.3084 274.594C67.2615 283.702 63.5988 295.369 64.1753 306.87C65.4311 298.996 68.4494 291.408 72.945 284.823C74.1361 283.079 75.4692 281.366 77.2588 280.244C79.0484 279.121 81.3865 278.678 83.297 279.579C84.0858 279.951 84.7596 280.526 85.3968 281.122ZM460.177 359.031C459.756 359.382 459.499 359.888 459.255 360.378C458.488 361.914 457.722 363.45 456.956 364.986C476.363 363.57 495.856 362.141 514.834 357.84C515.519 355.888 515.751 353.779 515.508 351.725C515.479 351.475 515.436 351.212 515.276 351.019C514.971 350.652 514.407 350.696 513.936 350.772C501.401 352.801 488.867 354.83 476.332 356.859C471.864 357.582 467.377 358.307 462.852 358.394C461.916 358.412 460.896 358.432 460.177 359.031ZM75.6663 303.2C76.4572 300.697 77.981 298.321 80.2802 297.055C82.3648 295.908 83.2152 293.401 83.8911 291.119C84.5904 288.759 85.2898 286.398 85.9891 284.038C86.1017 283.658 85.8018 283.29 85.5249 283.007C84.1771 281.626 82.6122 280.147 80.6825 280.135C79.0806 280.126 77.6641 281.151 76.5075 282.259C73.019 285.602 70.78 290.022 68.8531 294.452C68.1577 296.052 67.4933 297.666 66.944 299.321C64.8428 305.652 64.4771 312.55 65.897 319.067C67.8542 318.306 69.8416 317.528 71.5033 316.243C73.1651 314.959 74.4857 313.075 74.5954 310.978C74.7325 308.357 74.8754 305.702 75.6663 303.2ZM84.9309 269.62C90.4992 272.91 95.1341 277.761 98.1674 283.474C98.7619 284.594 99.2958 285.745 99.8015 286.907C107.487 304.573 108.429 325.077 102.395 343.373C103.673 342.214 105.396 341.653 106.714 340.54C109.409 338.263 109.805 334.322 109.958 330.796C110.619 315.566 110.328 299.815 104.286 285.818C102.074 280.694 99.116 275.891 95.5348 271.61C94.9495 270.91 94.3216 270.204 93.4923 269.824C92.6118 269.421 91.6054 269.43 90.6371 269.451C88.7346 269.492 86.8324 269.548 84.9309 269.62ZM519.541 356.914C519.356 354.85 518.423 352.942 517.733 350.988C517.043 349.034 516.599 346.838 517.389 344.922C518.367 342.55 518.267 339.832 517.525 337.375C516.784 334.918 515.441 332.687 513.971 330.584C511.134 326.526 507.773 322.834 503.998 319.631C505.518 329.343 510.445 338.128 515.056 346.809C515.895 348.388 516.74 350.013 516.984 351.784C517.19 353.27 516.961 354.778 516.71 356.257C515.742 361.953 514.434 367.591 512.797 373.132C512.449 374.308 513.032 375.541 513.632 376.611C515.803 380.48 518.423 384.098 521.423 387.366C520.55 384.602 519.676 381.837 518.802 379.073C517.681 375.527 516.546 371.836 517.061 368.153C517.596 364.331 519.884 360.758 519.541 356.914ZM83.3877 262.819C80.0214 261.852 76.0761 262.235 73.4924 264.6C68.4218 269.24 65.2625 275.716 63.7981 282.432C62.3338 289.148 62.4694 296.122 63.2351 302.953C63.32 292.331 67.1237 281.776 73.8334 273.541C75.0431 272.057 76.3854 270.614 78.1006 269.762C80.001 268.818 82.1866 268.682 84.305 268.563C86.9972 268.412 89.6894 268.26 92.3816 268.109C89.6581 265.907 86.7539 263.786 83.3877 262.819ZM82.8544 297.795C81.3409 297.514 79.7938 298.365 78.8308 299.566C77.8678 300.766 77.3789 302.27 76.9392 303.745C76.213 306.182 75.5636 308.672 75.5081 311.214C75.4526 313.756 76.0376 316.382 77.5732 318.408C78.3483 319.431 79.4143 320.31 80.6798 320.524C82.8358 320.889 84.8443 319.245 86.0116 317.396C88.4535 313.527 88.5736 308.537 87.307 304.141C87.2009 303.773 87.0827 303.401 86.8644 303.086C86.6179 302.73 86.2508 302.458 86.0692 302.065C85.8876 301.673 86.0269 301.076 86.4561 301.022C85.628 299.577 84.4922 298.098 82.8544 297.795ZM522.068 390.193C520.219 387.807 518.371 385.421 516.522 383.035C514.826 380.846 513.097 378.594 512.284 375.948C510.9 380.387 509.515 384.826 508.131 389.265C508.04 389.557 507.951 389.885 508.088 390.158C508.281 390.543 508.795 390.604 509.225 390.616C512.648 390.706 516.072 390.797 519.495 390.888C520.414 390.912 521.461 390.884 522.068 390.193ZM92.3354 293.034C92.4605 292.529 92.2303 292.009 91.9954 291.545C90.8152 289.208 89.3644 287.009 87.6814 285.004C87.4376 284.714 86.8664 284.491 86.7871 284.862C85.902 289 84.4993 293.027 82.6219 296.819C84.4247 297.31 86.0221 298.517 86.9872 300.116C88.2224 297.901 89.776 295.864 91.5853 294.087C91.8969 293.781 92.2305 293.458 92.3354 293.034ZM324.763 374.814C324.864 374.507 324.788 374.147 324.571 373.907C324.334 374.613 324.338 375.398 324.582 376.102C324.806 375.723 324.872 375.253 324.758 374.827L324.763 374.814ZM327.383 391.459C327.202 391.54 327.02 391.621 326.838 391.701C327.42 391.976 328.125 391.975 328.707 391.7C328.315 391.499 327.851 391.441 327.422 391.541L327.383 391.459Z" fill="#00160A"/>
<path fill-rule="evenodd" clip-rule="evenodd" d="M321.901 371.752C321.333 371.752 320.819 371.982 320.447 372.355C320.075 372.727 319.845 373.241 319.845 373.809C319.845 374.158 319.932 374.488 320.087 374.775C320.169 374.928 320.271 375.07 320.392 375.199C320.247 375.299 320.116 375.417 320.002 375.549C319.69 375.91 319.502 376.38 319.502 376.893C319.502 377.301 319.62 377.681 319.825 378.001C320.037 378.331 320.34 378.597 320.7 378.761L321.8 379.266L320.801 379.95C319.81 380.629 319.159 381.77 319.159 383.063C319.159 383.557 319.254 384.029 319.427 384.461C319.497 384.638 319.582 384.811 319.681 384.978C319.508 385.068 319.341 385.168 319.18 385.28C317.912 386.154 317.103 387.624 317.103 389.575C317.103 389.83 317.116 390.077 317.143 390.315C316.907 390.279 316.664 390.26 316.417 390.26C315.092 390.26 313.892 390.798 313.024 391.666C312.156 392.534 311.619 393.734 311.619 395.059C311.619 396.384 312.156 397.584 313.024 398.452C313.892 399.32 315.092 399.857 316.417 399.857C317.753 399.857 318.962 399.31 319.83 398.388C320.692 397.472 321.216 396.191 321.216 394.716C321.216 394.463 321.2 394.216 321.17 393.976C321.409 394.012 321.653 394.031 321.901 394.031C323.226 394.031 324.426 393.494 325.294 392.625C326.162 391.757 326.699 390.557 326.699 389.232C326.699 388.162 326.349 387.174 325.757 386.377C325.641 386.22 325.515 386.07 325.38 385.928C325.526 385.803 325.663 385.666 325.788 385.521C326.356 384.861 326.699 384.002 326.699 383.063C326.699 381.971 326.235 380.987 325.493 380.299C325.284 380.106 325.055 379.936 324.808 379.794C325.055 379.682 325.276 379.522 325.458 379.327C325.803 378.96 326.014 378.465 326.014 377.922C326.014 377.396 325.817 376.916 325.492 376.552C325.164 376.185 324.706 375.936 324.19 375.879L323.138 375.762L323.675 374.85C323.855 374.544 323.957 374.189 323.957 373.809C323.957 373.241 323.727 372.727 323.355 372.355C322.983 371.982 322.469 371.752 321.901 371.752Z" fill="white" stroke="#00160A" stroke-width="0.934762"/>
<path fill-rule="evenodd" clip-rule="evenodd" d="M297.22 319.404C296.855 319.839 296.348 320.085 295.824 320.13C295.299 320.176 294.758 320.022 294.323 319.657C294.055 319.432 293.858 319.154 293.738 318.85C293.674 318.689 293.63 318.519 293.609 318.344C293.439 318.391 293.265 318.415 293.09 318.418C292.614 318.425 292.133 318.267 291.739 317.937C291.427 317.675 291.212 317.34 291.099 316.977C290.982 316.603 290.973 316.2 291.078 315.818L291.399 314.652L290.233 314.977C289.075 315.299 287.783 315.065 286.793 314.234C286.414 313.916 286.114 313.54 285.894 313.13C285.804 312.962 285.726 312.786 285.662 312.603C285.482 312.678 285.297 312.741 285.108 312.793C283.623 313.202 281.977 312.877 280.482 311.623C280.287 311.459 280.107 311.29 279.942 311.116C279.817 311.321 279.675 311.519 279.517 311.708C278.665 312.723 277.482 313.296 276.259 313.403C275.036 313.511 273.771 313.151 272.756 312.299C271.741 311.447 271.168 310.265 271.061 309.042C270.954 307.818 271.313 306.554 272.165 305.539C273.024 304.515 274.22 303.941 275.485 303.869C276.74 303.797 278.058 304.22 279.188 305.168C279.381 305.33 279.561 305.501 279.726 305.679C279.851 305.473 279.994 305.274 280.153 305.083C281.005 304.068 282.188 303.495 283.411 303.388C284.634 303.28 285.899 303.64 286.914 304.492C287.733 305.18 288.265 306.083 288.496 307.049C288.541 307.239 288.575 307.432 288.596 307.627C288.787 307.595 288.979 307.578 289.171 307.576C290.042 307.565 290.92 307.854 291.64 308.458C292.476 309.16 292.931 310.148 292.981 311.159C292.995 311.442 292.977 311.727 292.927 312.008C293.173 311.89 293.437 311.824 293.703 311.809C294.207 311.782 294.721 311.938 295.137 312.287C295.54 312.625 295.781 313.085 295.851 313.567C295.921 314.055 295.818 314.566 295.53 314.998L294.943 315.879L295.987 316.054C296.337 316.112 296.675 316.262 296.966 316.506C297.401 316.871 297.647 317.378 297.693 317.903C297.739 318.427 297.585 318.969 297.22 319.404Z" fill="white" stroke="#00160A" stroke-width="0.934762"/>
<path fill-rule="evenodd" clip-rule="evenodd" d="M287.636 325.447C287.172 326 286.527 326.313 285.861 326.371C285.194 326.43 284.505 326.234 283.952 325.77C283.756 325.605 283.591 325.418 283.456 325.216C283.381 325.103 283.314 324.982 283.257 324.855C283.121 324.884 282.984 324.903 282.846 324.91C282.205 324.947 281.55 324.748 281.019 324.303C280.59 323.943 280.306 323.475 280.173 322.972C280.036 322.455 280.058 321.901 280.248 321.39L280.743 320.061L279.394 320.499C277.966 320.964 276.385 320.746 275.205 319.755C274.857 319.463 274.569 319.125 274.341 318.756C274.245 318.6 274.158 318.436 274.082 318.266C273.909 318.339 273.731 318.405 273.549 318.463C271.765 319.034 269.83 318.782 268.395 317.578C268.26 317.464 268.131 317.345 268.012 317.219L267.5 316.679L267.004 317.234C265.874 318.499 264.398 319.255 262.909 319.442C261.462 319.625 260.002 319.269 258.862 318.312C257.695 317.332 257.089 315.914 257.042 314.419C256.993 312.885 257.529 311.27 258.65 309.934C259.771 308.598 261.268 307.79 262.787 307.572C264.268 307.359 265.769 307.709 266.937 308.688C267.074 308.803 267.202 308.923 267.323 309.049L267.835 309.585L268.329 309.032C269.459 307.767 270.935 307.012 272.424 306.824C273.871 306.642 275.33 306.998 276.47 307.955C277.375 308.715 277.943 309.738 278.174 310.857C278.212 311.043 278.241 311.231 278.26 311.419C278.446 311.402 278.634 311.397 278.821 311.403C279.745 311.436 280.65 311.754 281.394 312.379C282.482 313.291 282.983 314.653 282.891 316.024C282.873 316.301 282.83 316.574 282.764 316.84C283.021 316.771 283.285 316.743 283.546 316.755C284.102 316.778 284.654 316.979 285.113 317.364C285.55 317.73 285.837 318.209 285.967 318.723C286.101 319.25 286.069 319.814 285.864 320.329C285.738 320.646 285.552 320.932 285.32 321.172C285.665 321.13 286.004 321.157 286.321 321.244C286.675 321.34 287.014 321.513 287.313 321.764C287.867 322.228 288.179 322.872 288.237 323.539C288.296 324.205 288.1 324.894 287.636 325.447Z" fill="white" stroke="#00160A" stroke-width="0.934762"/>
<path fill-rule="evenodd" clip-rule="evenodd" d="M103.366 309.32C102.798 309.32 102.284 309.55 101.912 309.922C101.54 310.294 101.31 310.808 101.31 311.376C101.31 311.726 101.397 312.055 101.552 312.343C101.634 312.495 101.736 312.638 101.858 312.767C101.712 312.867 101.581 312.985 101.467 313.117C101.156 313.477 100.967 313.947 100.967 314.461C100.967 314.869 101.086 315.249 101.291 315.568C101.502 315.898 101.806 316.164 102.165 316.329L103.265 316.833L102.267 317.517C101.275 318.197 100.624 319.337 100.624 320.63C100.624 321.124 100.719 321.596 100.892 322.028C100.963 322.205 101.048 322.378 101.147 322.545C100.974 322.635 100.806 322.736 100.645 322.847C99.3777 323.721 98.5679 325.191 98.5679 327.142C98.5679 327.397 98.5817 327.644 98.6086 327.882C98.3719 327.847 98.1293 327.828 97.8824 327.828C96.5574 327.828 95.3578 328.365 94.4894 329.233C93.6211 330.102 93.084 331.301 93.084 332.626C93.084 333.951 93.6211 335.151 94.4894 336.019C95.3578 336.888 96.5574 337.425 97.8824 337.425C99.2188 337.425 100.427 336.877 101.295 335.955C102.157 335.039 102.681 333.758 102.681 332.284C102.681 332.031 102.665 331.784 102.636 331.543C102.874 331.579 103.118 331.598 103.366 331.598C104.691 331.598 105.891 331.061 106.759 330.193C107.628 329.324 108.165 328.125 108.165 326.8C108.165 325.73 107.815 324.741 107.223 323.944C107.106 323.787 106.98 323.637 106.845 323.496C106.992 323.37 107.128 323.234 107.254 323.088C107.822 322.428 108.165 321.569 108.165 320.63C108.165 319.538 107.7 318.554 106.958 317.866C106.75 317.673 106.52 317.504 106.273 317.362C106.521 317.249 106.741 317.09 106.924 316.895C107.268 316.527 107.479 316.033 107.479 315.489C107.479 314.963 107.282 314.483 106.957 314.12C106.629 313.753 106.171 313.504 105.655 313.446L104.603 313.329L105.14 312.417C105.32 312.112 105.423 311.756 105.423 311.376C105.423 310.808 105.193 310.294 104.821 309.922C104.448 309.55 103.934 309.32 103.366 309.32Z" fill="white" stroke="#00160A" stroke-width="0.934762"/>
<path fill-rule="evenodd" clip-rule="evenodd" d="M103.366 327.828C102.036 327.828 100.832 328.369 99.9644 329.26C99.0994 330.148 98.569 331.381 98.5701 332.768C98.5704 333.206 98.6237 333.628 98.7237 334.029C98.3759 333.773 98.0043 333.563 97.6175 333.4C96.9614 333.122 96.2401 332.969 95.483 332.969C93.9686 332.969 92.5976 333.583 91.6052 334.575C90.6128 335.568 89.999 336.939 89.999 338.453C89.999 339.967 90.6128 341.338 91.6052 342.331C92.5976 343.323 93.9686 343.937 95.483 343.937C97.3603 343.937 99.0172 342.994 100.006 341.556C100.131 341.373 100.245 341.184 100.348 340.988C100.523 341.12 100.707 341.238 100.898 341.342C101.53 341.686 102.254 341.88 103.023 341.88C104.254 341.88 105.368 341.382 106.174 340.575C106.98 339.769 107.479 338.655 107.479 337.425C107.479 336.913 107.393 336.421 107.318 335.349C107.852 334.576 108.165 333.637 108.165 332.626C108.165 331.301 107.627 330.102 106.759 329.233C105.891 328.365 104.691 327.828 103.366 327.828Z" fill="white" stroke="#00160A" stroke-width="0.934762"/>
<path fill-rule="evenodd" clip-rule="evenodd" d="M91.0273 338.796C89.4367 338.796 87.9869 339.398 86.8889 340.386C85.7767 341.387 85.025 342.784 84.8538 344.354C84.8303 344.57 84.8182 344.785 84.817 344.998C84.6052 344.976 84.3901 344.965 84.1724 344.965C82.4687 344.965 80.9264 345.656 79.8099 346.772C78.6935 347.888 78.0029 349.431 78.0029 351.134C78.0029 352.838 78.6935 354.38 79.8099 355.497C80.9264 356.613 82.4687 357.304 84.1724 357.304C85.4412 357.304 86.6207 356.921 87.6012 356.264C88.612 355.587 89.4117 354.619 89.88 353.48C89.9853 353.225 90.0725 352.963 90.1419 352.698C90.3656 352.861 90.5989 353.008 90.84 353.138C91.7114 353.609 92.7092 353.876 93.7692 353.876C95.1475 353.876 96.4202 353.425 97.4472 352.661C98.4997 351.878 99.2944 350.768 99.6797 349.481C99.7424 349.271 99.7934 349.06 99.8331 348.847C100.04 348.914 100.248 348.965 100.457 349.003C100.734 349.052 101.019 349.078 101.31 349.078C102.635 349.078 103.834 348.541 104.703 347.673C105.571 346.804 106.108 345.605 106.108 344.28C106.108 342.955 105.571 341.755 104.703 340.887C103.834 340.018 102.635 339.481 101.31 339.481C99.6539 339.481 98.1941 340.32 97.332 341.595C97.0978 341.942 96.91 342.317 96.773 342.711C96.618 342.318 96.4231 341.942 96.1908 341.587C95.0886 339.906 93.1877 338.796 91.0273 338.796Z" fill="white" stroke="#00160A" stroke-width="0.934762"/>
<path fill-rule="evenodd" clip-rule="evenodd" d="M51.2685 311.376C49.5649 311.376 48.0226 312.067 46.9061 313.183C45.7897 314.3 45.0991 315.842 45.0991 317.546C45.0991 319.016 45.6136 320.367 46.4726 321.427C47.3478 322.506 48.5802 323.285 49.9903 323.581C50.3074 323.648 50.626 323.689 50.9436 323.705C50.7631 323.973 50.6053 324.253 50.4708 324.542C50.1028 325.332 49.8976 326.213 49.8976 327.142C49.8976 328.916 50.6458 330.514 51.8438 331.639C52.3094 332.077 52.8423 332.442 53.4237 332.718C52.8229 332.577 52.1863 332.597 51.5851 332.791C50.8875 333.017 50.2878 333.46 49.8657 334.04C49.4544 334.605 49.2121 335.301 49.2121 336.054C49.2121 337 49.5957 337.857 50.216 338.477C50.8362 339.098 51.6931 339.481 52.6395 339.481C53.3921 339.481 54.0882 339.239 54.6534 338.828C55.2336 338.405 55.6765 337.806 55.9014 337.108C56.0889 336.527 56.1137 335.912 55.9868 335.329C56.2754 335.887 56.6306 336.399 57.0534 336.849C57.9263 337.779 59.0816 338.437 60.3767 338.825C60.5463 338.875 60.7165 338.921 60.8869 338.961C60.8727 339.133 60.8654 339.306 60.8654 339.481C60.8654 340.847 61.3087 342.108 62.0596 343.13C62.8297 344.178 63.9229 344.974 65.1926 345.37C65.3492 345.419 65.5071 345.461 65.6659 345.497C65.6618 345.66 65.6641 345.823 65.6729 345.988C65.7605 347.617 66.4809 349.079 67.5924 350.131C68.6979 351.178 70.1907 351.82 71.8333 351.82C72.003 351.82 72.1711 351.813 72.337 351.8L72.8275 351.759L73.0229 352.211C73.504 353.323 74.303 354.265 75.3053 354.924C76.2767 355.562 77.4391 355.933 78.6882 355.933C80.3919 355.933 81.9342 355.243 83.0507 354.126C84.1671 353.01 84.8576 351.467 84.8576 349.764C84.8576 348.06 84.1671 346.518 83.0507 345.401C81.9342 344.285 80.3919 343.594 78.6882 343.594C78.5178 343.594 78.349 343.601 78.1829 343.615L77.6935 343.654L77.4985 343.203C76.7906 341.567 75.3945 340.298 73.6755 339.761C73.5189 339.712 73.3611 339.67 73.2024 339.634C73.2063 339.472 73.2041 339.308 73.1952 339.144C73.1197 337.741 72.5751 336.463 71.7174 335.447C70.8344 334.402 69.6202 333.634 68.2407 333.292C68.0599 333.247 67.8781 333.21 67.6959 333.18C67.7121 332.998 67.7204 332.813 67.7204 332.626C67.7204 330.587 66.7309 328.779 65.2067 327.657C65.0889 327.57 64.9682 327.488 64.8448 327.41C64.884 327.273 64.9143 327.135 64.9361 326.998C64.9639 326.822 64.9784 326.641 64.9784 326.457C64.9784 325.325 64.4298 324.322 63.585 323.698C63.4072 323.567 63.2173 323.453 63.0181 323.358C63.158 323.176 63.2874 322.987 63.4057 322.791C63.969 321.861 64.2929 320.769 64.2929 319.602C64.2929 317.898 63.6024 316.356 62.4859 315.24C61.3695 314.123 59.8271 313.433 58.1235 313.433C57.5793 313.433 57.0515 313.503 56.5489 313.635C56.4116 313.671 56.2749 313.712 56.1391 313.758C56.0513 313.645 55.9596 313.536 55.8643 313.429C54.7346 312.169 53.0942 311.376 51.2685 311.376Z" fill="white" stroke="#00160A" stroke-width="0.934762"/>
<path fill-rule="evenodd" clip-rule="evenodd" d="M49.2124 301.779C47.5088 301.779 45.9664 302.47 44.85 303.586C43.7335 304.703 43.043 306.245 43.043 307.949C43.043 309.089 43.3524 310.158 43.8922 311.075C44.4515 312.024 45.2576 312.811 46.5645 313.827C46.8218 315.285 47.5915 316.566 48.6803 317.478C49.7518 318.376 51.1327 318.916 52.6399 318.916C54.0172 318.916 55.2893 318.465 56.3158 317.702C57.368 316.92 58.1628 315.811 58.5487 314.525C58.6104 314.32 58.661 314.112 58.7004 313.903C58.9062 313.964 59.1127 314.012 59.3189 314.047C59.5985 314.094 59.8863 314.118 60.1803 314.118C61.5106 314.118 62.7167 313.615 63.5892 312.798C64.445 311.995 64.9787 310.888 64.9787 309.662C64.9787 308.437 64.445 307.329 63.5892 306.527C62.7167 305.709 61.5106 305.207 60.1803 305.207C58.6621 305.207 57.305 305.861 56.4235 306.893L55.5325 307.935L55.2334 306.597C54.9223 305.205 54.1403 303.99 53.0639 303.129C52.0084 302.284 50.6693 301.779 49.2124 301.779Z" fill="white" stroke="#00160A" stroke-width="0.934762"/>
<path fill-rule="evenodd" clip-rule="evenodd" d="M54.0107 292.182C52.592 292.182 51.3144 292.754 50.4321 293.67C50.3316 293.774 50.2358 293.884 50.145 293.997C50.0075 293.942 49.8687 293.892 49.7288 293.847C49.1339 293.656 48.4996 293.553 47.8413 293.553C46.1377 293.553 44.5953 294.244 43.4789 295.36C42.3624 296.477 41.6719 298.019 41.6719 299.723C41.6719 301.426 42.3624 302.969 43.4789 304.085C44.5953 305.202 46.1377 305.892 47.8413 305.892C49.0852 305.892 50.2431 305.524 51.2119 304.891C52.2116 304.237 53.0101 303.301 53.494 302.196L54.3415 300.261L54.7917 302.325C55.0149 303.349 55.6162 304.243 56.4483 304.879C57.2789 305.514 58.3399 305.892 59.4947 305.892C60.825 305.892 62.0311 305.39 62.9036 304.572C63.7594 303.769 64.2931 302.662 64.2931 301.436C64.2931 300.21 63.759 299.103 62.9013 298.3C62.0272 297.483 60.8183 296.981 59.4828 296.981C59.2477 296.981 59.0167 296.997 58.7906 297.027C58.8118 296.802 58.815 296.574 58.7989 296.343C58.7174 295.182 58.1559 294.145 57.3042 293.398C56.4423 292.642 55.2834 292.182 54.0107 292.182Z" fill="white" stroke="#00160A" stroke-width="0.934762"/>
<path d="M41.6714 303.15C45.0787 303.15 47.8408 300.388 47.8408 296.98C47.8408 293.573 45.0787 290.811 41.6714 290.811C38.2641 290.811 35.502 293.573 35.502 296.98C35.502 300.388 38.2641 303.15 41.6714 303.15Z" fill="white" stroke="#00160A" stroke-width="0.934762"/>
<path d="M62.9221 341.538C64.815 341.538 66.3495 340.003 66.3495 338.11C66.3495 336.217 64.815 334.683 62.9221 334.683C61.0292 334.683 59.4946 336.217 59.4946 338.11C59.4946 340.003 61.0292 341.538 62.9221 341.538Z" fill="white" stroke="#00160A" stroke-width="0.934762"/>
<path d="M43.7282 333.312C45.6212 333.312 47.1557 331.777 47.1557 329.884C47.1557 327.991 45.6212 326.457 43.7282 326.457C41.8353 326.457 40.3008 327.991 40.3008 329.884C40.3008 331.777 41.8353 333.312 43.7282 333.312Z" fill="white" stroke="#00160A" stroke-width="0.934762"/>
<path d="M33.446 314.804C35.3389 314.804 36.8735 313.269 36.8735 311.376C36.8735 309.483 35.3389 307.949 33.446 307.949C31.5531 307.949 30.0186 309.483 30.0186 311.376C30.0186 313.269 31.5531 314.804 33.446 314.804Z" fill="white" stroke="#00160A" stroke-width="0.934762"/>
<path d="M38.9294 321.658C40.8223 321.658 42.3569 320.124 42.3569 318.231C42.3569 316.338 40.8223 314.803 38.9294 314.803C37.0365 314.803 35.502 316.338 35.502 318.231C35.502 320.124 37.0365 321.658 38.9294 321.658Z" fill="white" stroke="#00160A" stroke-width="0.934762"/>
<path fill-rule="evenodd" clip-rule="evenodd" d="M80.4022 258.593C78.2253 258.593 76.2545 259.476 74.828 260.902C73.4014 262.329 72.519 264.3 72.519 266.476C72.519 268.524 73.2998 270.39 74.5798 271.791C75.8711 273.205 77.6704 274.147 79.689 274.327C79.8138 274.339 79.9383 274.347 80.0624 274.352C80.116 274.464 80.1722 274.575 80.2313 274.685C80.8497 275.832 81.7702 276.792 82.8863 277.459C83.9643 278.103 85.2248 278.473 86.5716 278.473C86.786 278.473 86.9982 278.463 87.2073 278.444L88.3487 278.341L87.8996 279.396C87.7065 279.849 87.5999 280.348 87.5999 280.872C87.5999 281.913 88.0219 282.855 88.7041 283.538C89.3864 284.22 90.3289 284.642 91.3701 284.642C92.4112 284.642 93.3537 284.22 94.036 283.538C94.7183 282.855 95.1403 281.913 95.1403 280.872C95.1403 279.995 94.8413 279.189 94.3396 278.549C93.8272 277.895 93.1037 277.415 92.2713 277.211C91.7511 277.084 91.2188 277.073 90.7081 277.166C91.1543 276.852 91.5622 276.49 91.9244 276.087C93.0714 274.812 93.7693 273.125 93.7693 271.275C93.7693 269.607 93.202 268.071 92.2495 266.851C91.2765 265.604 89.9019 264.686 88.3199 264.292C88.1987 264.262 88.0771 264.235 87.9553 264.211C87.9194 264.092 87.8807 263.973 87.839 263.855C87.2913 262.301 86.2703 260.971 84.9496 260.036C83.6647 259.127 82.0958 258.593 80.4022 258.593Z" fill="white" stroke="#00160A" stroke-width="0.934762"/>
<path fill-rule="evenodd" clip-rule="evenodd" d="M96.8541 274.359C95.813 274.359 94.8705 274.781 94.1882 275.464C93.5059 276.146 93.0839 277.088 93.0839 278.13C93.0839 279.171 93.5059 280.113 94.1882 280.796C94.8705 281.478 95.813 281.9 96.8541 281.9C97.8953 281.9 98.8378 281.478 99.5201 280.796C100.202 280.113 100.624 279.171 100.624 278.13C100.624 277.088 100.202 276.146 99.5201 275.464C98.8378 274.781 97.8953 274.359 96.8541 274.359ZM87.2573 256.537C85.3606 256.537 83.6421 257.268 82.3987 258.455C81.1671 259.631 80.4023 261.254 80.4023 263.049C80.4023 264.844 81.1671 266.467 82.3987 267.642C83.6421 268.829 85.3606 269.561 87.2573 269.561C89.154 269.561 90.8724 268.829 92.1158 267.642C93.3474 266.467 94.1122 264.844 94.1122 263.049C94.1122 261.254 93.3474 259.631 92.1158 258.455C90.8724 257.268 89.154 256.537 87.2573 256.537Z" fill="white" stroke="#00160A" stroke-width="0.934762"/>
<path fill-rule="evenodd" clip-rule="evenodd" d="M94.1122 266.134C92.9254 266.134 91.8325 266.536 90.9624 267.211C90.073 267.902 89.416 268.877 89.1296 270.001C89.0987 270.123 89.0725 270.244 88.7013 270.476C87.9696 270.744 87.3443 271.233 86.9054 271.861C86.4789 272.472 86.229 273.215 86.229 274.017C86.229 275.058 86.651 276 87.3333 276.683C88.0155 277.365 88.9581 277.787 89.9992 277.787C91.0936 277.787 92.079 277.321 93.0017 276.296C93.1241 276.323 93.2465 276.345 93.3687 276.363C93.6115 276.398 93.8597 276.416 94.1122 276.416C95.5319 276.416 96.8172 275.84 97.7475 274.91C98.6779 273.98 99.2533 272.694 99.2533 271.275C99.2533 269.855 98.6779 268.57 97.7475 267.639C96.8172 266.709 95.5319 266.134 94.1122 266.134Z" fill="white" stroke="#00160A" stroke-width="0.934762"/>
<path d="M71.148 277.787C74.1767 277.787 76.6319 275.485 76.6319 272.646C76.6319 269.806 74.1767 267.505 71.148 267.505C68.1193 267.505 65.6641 269.806 65.6641 272.646C65.6641 275.485 68.1193 277.787 71.148 277.787Z" fill="white" stroke="#00160A" stroke-width="0.934762"/>
<path fill-rule="evenodd" clip-rule="evenodd" d="M62.2372 256.537C60.9069 256.537 59.7008 257.039 58.8284 257.857C57.9725 258.659 57.4388 259.767 57.4388 260.992C57.4388 261.933 57.7529 262.804 58.2857 263.521C58.4785 263.78 58.6989 264.017 58.9443 264.228C58.6316 264.304 58.3237 264.411 58.0261 264.551C57.2271 264.924 56.554 265.5 56.0864 266.209C55.6405 266.884 55.3823 267.68 55.3823 268.533C55.3823 269.758 55.916 270.866 56.7719 271.668C57.6443 272.486 58.8504 272.988 60.1808 272.988C61.9368 272.988 63.4792 272.112 64.3175 270.791C64.5099 270.487 64.6653 270.16 64.7815 269.817C64.9567 270.137 65.1664 270.433 65.4062 270.7C66.2899 271.683 67.6147 272.303 69.0922 272.303C70.4225 272.303 71.6286 271.8 72.501 270.983C73.3569 270.18 73.8906 269.073 73.8906 267.847C73.8906 266.622 73.3569 265.514 72.501 264.712C71.6286 263.894 70.4225 263.392 69.0922 263.392C68.5359 263.392 68.0015 263.479 67.5052 263.642L66.0277 264.127L66.6664 262.709C66.9042 262.182 67.0357 261.601 67.0357 260.992C67.0357 259.767 66.502 258.659 65.6461 257.857C64.7737 257.039 63.5676 256.537 62.2372 256.537Z" fill="white" stroke="#00160A" stroke-width="0.934762"/>
<path fill-rule="evenodd" clip-rule="evenodd" d="M58.8092 245.569C57.4788 245.569 56.2727 246.071 55.4003 246.889C54.5444 247.692 54.0107 248.799 54.0107 250.025C54.0107 251.151 54.4612 252.177 55.1983 252.959C55.9577 253.764 57.02 254.31 58.2163 254.447L58.8734 254.522L58.8092 255.508C58.8092 256.734 59.3429 257.841 60.1987 258.644C61.0711 259.462 62.2773 259.964 63.6076 259.964C64.2678 259.964 64.8972 259.841 65.4697 259.616L66.5786 259.18L66.3979 260.358C66.366 260.565 66.3496 260.777 66.3496 260.992C66.3496 262.218 66.8833 263.325 67.7392 264.128C68.6116 264.946 69.8177 265.448 71.148 265.448C72.4784 265.448 73.6845 264.946 74.5569 264.128C75.4128 263.325 75.9465 262.218 75.9465 260.992C75.9465 259.767 75.4128 258.66 74.5569 257.857C73.6845 257.039 72.4784 256.537 71.148 256.537C70.488 256.537 69.8587 256.66 69.2865 256.886L68.1766 257.323L68.3577 256.144C68.3896 255.936 68.4061 255.724 68.4061 255.508C68.4061 254.382 67.9556 253.356 67.2185 252.575C66.4591 251.77 65.3969 251.223 64.2006 251.087L63.5433 251.012L63.6076 250.025C63.6076 248.799 63.074 247.692 62.2181 246.889C61.3457 246.071 60.1395 245.569 58.8092 245.569Z" fill="white" stroke="#00160A" stroke-width="0.934762"/>
<path d="M67.7203 285.327C70.3704 285.327 72.5188 283.332 72.5188 280.871C72.5188 278.411 70.3704 276.416 67.7203 276.416C65.0702 276.416 62.9219 278.411 62.9219 280.871C62.9219 283.332 65.0702 285.327 67.7203 285.327Z" fill="white" stroke="#00160A" stroke-width="0.934762"/>
<path fill-rule="evenodd" clip-rule="evenodd" d="M56.0665 281.255L54.8828 279.998C53.9999 279.06 52.7067 278.472 51.2687 278.472C49.9383 278.472 48.7322 278.975 47.8598 279.793C47.0039 280.595 46.4702 281.703 46.4702 282.928C46.4702 284.154 47.0039 285.261 47.8598 286.063C48.7322 286.881 49.9383 287.384 51.2687 287.384C52.6 287.384 53.807 286.88 54.6794 286.058C55.5347 285.252 56.0669 284.138 56.0667 282.901L56.0665 281.255ZM56.0677 281.174L57.2514 282.431C58.1343 283.369 59.4275 283.956 60.8655 283.956C62.5631 283.956 64.0604 283.138 65.2608 281.628C66.194 281.31 66.9934 280.73 67.5537 279.979C68.0899 279.261 68.406 278.388 68.406 277.444C68.406 276.219 67.8723 275.111 67.0164 274.309C66.144 273.491 64.9379 272.989 63.6075 272.989C61.9099 272.989 60.4126 273.807 59.2122 275.317C58.2783 275.635 57.4784 276.216 56.9183 276.971C56.3824 277.692 56.0673 278.573 56.0675 279.528L56.0677 281.174Z" fill="white" stroke="#00160A" stroke-width="0.934762"/>
<path fill-rule="evenodd" clip-rule="evenodd" d="M59.4945 278.472C58.1641 278.472 56.958 278.975 56.0856 279.793C55.2297 280.595 54.696 281.702 54.696 282.928C54.696 283.727 54.9226 284.476 55.3183 285.122C55.5191 285.45 55.7634 285.751 56.0483 286.016C55.6649 286.014 55.276 286.057 54.89 286.148C53.835 286.395 52.9167 286.967 52.2675 287.747C51.6428 288.498 51.2686 289.442 51.2686 290.469C51.2686 291.694 51.8022 292.801 52.6581 293.604C53.5305 294.422 54.7366 294.924 56.067 294.924C57.2 294.924 58.2426 294.56 59.0661 293.947C59.8927 293.331 60.4988 292.464 60.7442 291.467C60.8629 290.984 60.8928 290.49 60.8414 290.003C61.1211 290.422 61.4589 290.79 61.8394 291.096C62.6831 291.775 63.7803 292.182 64.9784 292.182C66.3088 292.182 67.5149 291.68 68.3873 290.862C69.2432 290.059 69.7768 288.952 69.7768 287.727C69.7768 286.501 69.2428 285.393 68.385 284.591C67.511 283.773 66.302 283.271 64.9665 283.271C64.7315 283.271 64.5004 283.287 64.2744 283.317C64.2955 283.092 64.2988 282.864 64.2826 282.634C64.2011 281.472 63.6396 280.435 62.7879 279.688C61.926 278.932 60.7671 278.472 59.4945 278.472Z" fill="white" stroke="#00160A" stroke-width="0.934762"/>
<path fill-rule="evenodd" clip-rule="evenodd" d="M244.311 326.286C242.981 326.286 241.775 326.788 240.902 327.606C240.047 328.408 239.513 329.516 239.513 330.741C239.513 331.54 239.739 332.289 240.135 332.935C240.336 333.263 240.58 333.564 240.865 333.829C240.482 333.827 240.093 333.87 239.707 333.961C238.652 334.208 237.734 334.78 237.084 335.561C236.46 336.311 236.085 337.255 236.085 338.282C236.085 339.507 236.619 340.615 237.475 341.417C238.347 342.235 239.554 342.737 240.884 342.737C242.017 342.737 243.06 342.373 243.883 341.76C244.71 341.144 245.316 340.277 245.561 339.28C245.68 338.797 245.71 338.303 245.658 337.816C245.938 338.235 246.276 338.603 246.656 338.909C247.5 339.588 248.597 339.995 249.795 339.995C251.126 339.995 252.332 339.493 253.204 338.675C254.06 337.873 254.594 336.765 254.594 335.54C254.594 334.314 254.06 333.206 253.202 332.404C252.328 331.586 251.119 331.084 249.783 331.084C249.548 331.084 249.317 331.1 249.091 331.13C249.112 330.905 249.116 330.677 249.099 330.447C249.018 329.285 248.457 328.248 247.605 327.501C246.743 326.745 245.584 326.286 244.311 326.286Z" fill="white" stroke="#00160A" stroke-width="0.934762"/>
<path fill-rule="evenodd" clip-rule="evenodd" d="M230.219 347.6C230.219 349.229 230.919 350.702 232.045 351.769C233.185 352.849 234.761 353.514 236.5 353.514C237.634 353.514 238.699 353.232 239.617 352.735C239.919 352.572 240.211 352.383 240.488 352.169C240.498 352.511 240.539 352.853 240.613 353.193C240.908 354.55 241.697 355.735 242.79 356.578C243.875 357.415 245.259 357.914 246.767 357.914C248.505 357.914 250.081 357.249 251.221 356.169C252.348 355.102 253.048 353.629 253.048 352C253.048 350.681 252.589 349.464 251.817 348.483C251.017 347.466 249.882 346.702 248.568 346.333C248.054 346.188 247.531 346.11 247.013 346.094C247.473 345.846 247.9 345.536 248.282 345.174C249.412 344.107 250.114 342.632 250.114 341C250.114 339.371 249.414 337.898 248.288 336.831C247.148 335.751 245.572 335.085 243.833 335.085C242.094 335.085 240.518 335.751 239.378 336.832C238.252 337.901 237.552 339.376 237.552 341.009L237.553 341.729L236.5 341.685C234.761 341.685 233.185 342.351 232.045 343.431C230.919 344.498 230.219 345.971 230.219 347.6Z" fill="white" stroke="#00160A" stroke-width="0.934762"/>
<path d="M61.5514 299.723C64.2015 299.723 66.3498 297.728 66.3498 295.267C66.3498 292.806 64.2015 290.811 61.5514 290.811C58.9013 290.811 56.7529 292.806 56.7529 295.267C56.7529 297.728 58.9013 299.723 61.5514 299.723Z" fill="white" stroke="#00160A" stroke-width="0.934762"/>
<path d="M54.0104 279.158C56.6605 279.158 58.8088 277.163 58.8088 274.702C58.8088 272.241 56.6605 270.247 54.0104 270.247C51.3602 270.247 49.2119 272.241 49.2119 274.702C49.2119 277.163 51.3602 279.158 54.0104 279.158Z" fill="white" stroke="#00160A" stroke-width="0.934762"/>
<path fill-rule="evenodd" clip-rule="evenodd" d="M56.0674 248.311C54.737 248.311 53.5309 248.813 52.6585 249.631C51.8026 250.434 51.2689 251.541 51.2689 252.766C51.2689 253.997 51.8069 255.108 52.6685 255.912C52.9788 256.201 53.3259 256.446 53.7004 256.636C53.2893 256.713 52.8843 256.846 52.4976 257.031C51.5815 257.471 50.8344 258.178 50.3798 259.045C50.2954 259.206 50.2212 259.372 50.1575 259.542C49.9815 259.483 49.8044 259.435 49.6268 259.396C49.2735 259.319 48.9053 259.279 48.527 259.279C47.1966 259.279 45.9905 259.781 45.1181 260.599C44.2622 261.401 43.7285 262.509 43.7285 263.734C43.7285 264.96 44.2622 266.067 45.1181 266.87C45.9905 267.688 47.1966 268.19 48.527 268.19C49.4627 268.19 50.3367 267.942 51.0766 267.509C51.8323 267.068 52.4484 266.436 52.8436 265.682C52.928 265.521 53.0021 265.355 53.0659 265.185C53.2419 265.243 53.419 265.292 53.5965 265.331C53.9499 265.408 54.3181 265.448 54.6964 265.448C56.0267 265.448 57.2329 264.946 58.1053 264.128C58.9612 263.325 59.4948 262.218 59.4948 260.992C59.4948 259.762 58.9569 258.651 58.0945 257.848C57.7829 257.558 57.4341 257.314 57.0578 257.124C57.4704 257.047 57.8768 256.915 58.265 256.728C59.0522 256.351 59.7144 255.776 60.1742 255.072C60.6124 254.4 60.8658 253.611 60.8658 252.766C60.8658 251.541 60.3321 250.434 59.4763 249.631C58.6039 248.813 57.3977 248.311 56.0674 248.311Z" fill="white" stroke="#00160A" stroke-width="0.934762"/>
<path fill-rule="evenodd" clip-rule="evenodd" d="M52.6399 242.141C51.479 242.141 50.413 242.524 49.5804 243.165C48.7469 243.806 48.147 244.707 47.9302 245.738C47.8942 245.91 47.8693 246.082 47.8551 246.255C47.6805 246.254 47.5042 246.262 47.3269 246.28C46.2225 246.389 45.2284 246.846 44.4749 247.536C43.7325 248.214 43.2238 249.119 43.0826 250.133C43.0632 250.272 43.051 250.412 43.0458 250.551C42.91 250.588 42.775 250.632 42.6413 250.681C41.7395 251.014 40.9701 251.595 40.432 252.337C39.9175 253.045 39.6156 253.901 39.6156 254.823C39.6156 256.114 40.2076 257.273 41.1446 258.083C41.475 258.368 41.8421 258.605 42.235 258.784C41.8103 258.885 41.3925 259.031 40.9894 259.221C39.9528 259.711 39.0804 260.463 38.4742 261.386C37.8944 262.268 37.5591 263.307 37.5591 264.42C37.5591 266.024 38.2564 267.474 39.377 268.525C40.514 269.591 42.0857 270.247 43.8199 270.247C45.5541 270.247 47.1258 269.591 48.2629 268.525C49.3834 267.474 50.0807 266.024 50.0807 264.42C50.0807 264.29 50.0762 264.16 50.0664 264.033L50.0339 263.606L50.4027 263.39C51.7398 262.604 52.6399 261.214 52.6399 259.621C52.6399 258.817 52.41 258.062 52.0093 257.412C51.5885 256.73 50.9804 256.163 50.2524 255.769L49.137 255.167L50.2521 254.563C51.42 253.931 52.2815 252.851 52.5518 251.568C52.5878 251.397 52.6128 251.225 52.6271 251.052C52.8015 251.053 52.9778 251.045 53.155 251.027C54.3695 250.907 55.4509 250.366 56.225 249.558C56.9774 248.773 57.4383 247.736 57.4383 246.597C57.4383 245.371 56.9047 244.264 56.0488 243.462C55.1764 242.644 53.9703 242.141 52.6399 242.141Z" fill="white" stroke="#00160A" stroke-width="0.934762"/>
<path d="M49.212 293.553C51.8621 293.553 54.0105 291.558 54.0105 289.098C54.0105 286.637 51.8621 284.642 49.212 284.642C46.5619 284.642 44.4136 286.637 44.4136 289.098C44.4136 291.558 46.5619 293.553 49.212 293.553Z" fill="white" stroke="#00160A" stroke-width="0.934762"/>
<path d="M45.0992 289.44C47.7493 289.44 49.8977 287.445 49.8977 284.985C49.8977 282.524 47.7493 280.529 45.0992 280.529C42.4491 280.529 40.3008 282.524 40.3008 284.985C40.3008 287.445 42.4491 289.44 45.0992 289.44Z" fill="white" stroke="#00160A" stroke-width="0.934762"/>
<path fill-rule="evenodd" clip-rule="evenodd" d="M49.9894 264.763C48.6053 264.763 47.3274 265.185 45.6843 266.136C44.2034 266.178 42.8503 266.698 41.7979 267.54C40.744 268.383 39.9915 269.55 39.4289 271.315C37.8337 272.367 36.7822 274.103 36.7822 276.073C36.7822 277.678 37.4796 279.128 38.6001 280.178C39.7372 281.244 41.3089 281.9 43.0431 281.9C44.5698 281.9 45.9703 281.391 47.0727 280.521C48.183 279.644 48.9903 278.402 49.321 276.949C49.3632 276.764 49.3969 276.578 49.4224 276.393C49.609 276.408 49.7982 276.416 49.9894 276.416C51.7236 276.416 53.2953 275.76 54.4323 274.694C55.5528 273.644 56.2502 272.194 56.2502 270.589C56.2502 268.985 55.5528 267.535 54.4323 266.485C53.2953 265.419 51.7236 264.763 49.9894 264.763Z" fill="white" stroke="#00160A" stroke-width="0.934762"/>
<path d="M60.1808 247.625C62.8309 247.625 64.9792 245.63 64.9792 243.17C64.9792 240.709 62.8309 238.714 60.1808 238.714C57.5307 238.714 55.3823 240.709 55.3823 243.17C55.3823 245.63 57.5307 247.625 60.1808 247.625Z" fill="white" stroke="#00160A" stroke-width="0.934762"/>
<path fill-rule="evenodd" clip-rule="evenodd" d="M312.519 393.019C311.189 393.019 309.985 393.56 309.117 394.451C308.252 395.339 307.722 396.572 307.723 397.959C307.723 398.397 307.776 398.819 307.877 399.22C307.529 398.964 307.157 398.754 306.77 398.591C306.114 398.313 305.393 398.16 304.636 398.16C303.121 398.16 301.75 398.774 300.758 399.766C299.766 400.759 299.152 402.13 299.152 403.644C299.152 405.158 299.766 406.529 300.758 407.522C301.75 408.514 303.121 409.128 304.636 409.128C306.513 409.128 308.17 408.184 309.159 406.747C309.284 406.564 309.398 406.375 309.501 406.179C309.676 406.311 309.86 406.429 310.051 406.533C310.683 406.876 311.407 407.071 312.176 407.071C313.407 407.071 314.521 406.573 315.327 405.766C316.133 404.96 316.632 403.846 316.632 402.616C316.632 402.104 316.546 401.612 316.471 400.54C317.005 399.766 317.317 398.828 317.317 397.817C317.317 396.492 316.78 395.293 315.912 394.424C315.044 393.556 313.844 393.019 312.519 393.019Z" fill="white" stroke="#00160A" stroke-width="0.934762"/>
<path fill-rule="evenodd" clip-rule="evenodd" d="M286.788 411.577C288.038 412.032 289.354 411.934 290.474 411.394C291.591 410.856 292.511 409.879 292.984 408.575C293.134 408.163 293.228 407.748 293.271 407.337C293.51 407.697 293.788 408.021 294.095 408.307C294.617 408.792 295.242 409.183 295.954 409.442C297.377 409.96 298.875 409.852 300.147 409.259C301.419 408.666 302.465 407.587 302.983 406.164C303.501 404.741 303.393 403.243 302.8 401.971C302.206 400.699 301.128 399.653 299.705 399.135C297.941 398.493 296.061 398.813 294.641 399.826C294.46 399.955 294.288 400.094 294.125 400.243C294.005 400.059 293.873 399.885 293.729 399.722C293.253 399.183 292.639 398.752 291.916 398.489C290.76 398.068 289.542 398.156 288.509 398.638C287.476 399.12 286.626 399.996 286.205 401.152C286.03 401.633 285.943 402.125 285.647 403.158C284.88 403.702 284.266 404.477 283.92 405.427C283.467 406.672 283.561 407.983 284.08 409.096C284.599 410.209 285.543 411.124 286.788 411.577Z" fill="white" stroke="#00160A" stroke-width="0.934762"/>
<path d="M294.433 416.581C297.497 416.581 299.981 414.097 299.981 411.033C299.981 407.969 297.497 405.485 294.433 405.485C291.369 405.485 288.885 407.969 288.885 411.033C288.885 414.097 291.369 416.581 294.433 416.581Z" fill="white" stroke="#00160A" stroke-width="0.934762"/>
<path d="M301.766 415.115C304.83 415.115 307.314 412.631 307.314 409.567C307.314 406.503 304.83 404.019 301.766 404.019C298.702 404.019 296.218 406.503 296.218 409.567C296.218 412.631 298.702 415.115 301.766 415.115Z" fill="white" stroke="#00160A" stroke-width="0.934762"/>
<path fill-rule="evenodd" clip-rule="evenodd" d="M257.033 309.419C255.932 309.419 254.906 309.74 254.023 310.291C253.085 310.878 252.308 311.724 251.77 312.724C251.704 312.848 251.641 312.974 251.583 313.101C251.445 313.091 251.307 313.085 251.167 313.085C249.635 313.085 248.248 313.706 247.244 314.71C246.24 315.714 245.619 317.101 245.619 318.633C245.619 319.455 245.797 320.236 246.119 320.937C246.278 321.283 246.474 321.616 246.706 321.928C246.33 321.881 245.944 321.873 245.554 321.906C244.128 322.028 242.856 322.689 241.943 323.685C241.038 324.672 240.485 325.988 240.485 327.433C240.485 328.965 241.106 330.352 242.11 331.356C243.114 332.36 244.501 332.981 246.033 332.981C246.547 332.981 247.045 332.911 247.516 332.781C247.668 332.74 247.818 332.691 247.967 332.636C248.053 332.769 248.144 332.898 248.241 333.023C249.256 334.336 250.846 335.181 252.633 335.181C254.165 335.181 255.552 334.56 256.556 333.556C257.56 332.552 258.181 331.165 258.181 329.633C258.181 328.811 258.002 328.031 257.681 327.33C257.522 326.983 257.326 326.651 257.093 326.339C257.47 326.386 257.855 326.394 258.246 326.361C259.672 326.239 260.943 325.578 261.856 324.582C262.762 323.595 263.314 322.279 263.314 320.833C263.314 319.635 262.935 318.525 262.288 317.619C262.216 317.516 262.139 317.417 262.059 317.319C262.113 317.205 262.162 317.089 262.207 316.973C262.449 316.351 262.581 315.674 262.581 314.967C262.581 313.435 261.96 312.048 260.956 311.044C259.952 310.04 258.565 309.419 257.033 309.419Z" fill="white" stroke="#00160A" stroke-width="0.934762"/>
<path d="M263.633 324.181C266.697 324.181 269.181 321.697 269.181 318.633C269.181 315.569 266.697 313.085 263.633 313.085C260.569 313.085 258.085 315.569 258.085 318.633C258.085 321.697 260.569 324.181 263.633 324.181Z" fill="white" stroke="#00160A" stroke-width="0.934762"/>
<path d="M246.4 350.581C248.856 350.581 250.847 348.59 250.847 346.133C250.847 343.677 248.856 341.686 246.4 341.686C243.943 341.686 241.952 343.677 241.952 346.133C241.952 348.59 243.943 350.581 246.4 350.581Z" fill="white" stroke="#00160A" stroke-width="0.934762"/>
<path d="M255.933 312.815C257.984 312.815 259.647 311.151 259.647 309.1C259.647 307.049 257.984 305.385 255.933 305.385C253.881 305.385 252.218 307.049 252.218 309.1C252.218 311.151 253.881 312.815 255.933 312.815Z" fill="white" stroke="#00160A" stroke-width="0.934762"/>
<path d="M245.666 305.848C247.718 305.848 249.381 304.185 249.381 302.133C249.381 300.082 247.718 298.419 245.666 298.419C243.615 298.419 241.952 300.082 241.952 302.133C241.952 304.185 243.615 305.848 245.666 305.848Z" fill="white" stroke="#00160A" stroke-width="0.934762"/>
<path fill-rule="evenodd" clip-rule="evenodd" d="M242.571 368.085C240.252 368.085 238.232 368.808 236.851 370.002C235.538 371.136 234.814 372.699 235.018 374.433C235.198 375.969 236.056 377.369 237.316 378.473C238.649 379.64 240.432 380.477 242.393 380.797C242.736 380.853 243.079 380.892 243.42 380.915C243.218 381.181 243.045 381.466 242.902 381.767C242.523 382.566 242.362 383.456 242.469 384.395C242.68 386.256 243.879 387.917 245.586 389.093L246.814 389.939L245.373 390.32C244.468 390.56 243.713 391.022 243.218 391.64C242.768 392.202 242.541 392.893 242.627 393.642C242.741 394.642 243.369 395.534 244.258 396.185C245.203 396.878 246.449 397.303 247.77 397.303C248.802 397.303 249.73 397.043 250.458 396.591C251.153 396.16 251.663 395.553 251.875 394.838C251.994 394.437 252.015 394.013 251.949 393.587C252.269 393.917 252.604 394.22 252.954 394.492C254.232 395.488 255.856 396.193 257.637 396.609C257.803 396.648 257.969 396.684 258.135 396.717C258.137 396.88 258.146 397.043 258.163 397.206C258.312 398.626 259.034 399.933 260.117 400.995C261.267 402.122 262.824 402.975 264.569 403.401C264.722 403.438 264.874 403.472 265.026 403.502C265.039 403.653 265.058 403.804 265.083 403.954C265.369 405.664 266.476 407.185 268.029 408.286C269.623 409.417 271.693 410.107 273.893 410.107C274.121 410.107 274.345 410.1 274.566 410.085C274.704 410.076 274.843 410.063 274.983 410.048C275.049 410.169 275.119 410.287 275.192 410.403C276.674 412.756 279.735 414.375 283.097 414.375C285.343 414.375 287.322 413.651 288.696 412.459C290.011 411.319 290.765 409.748 290.619 408.004C290.471 406.225 289.418 404.627 287.87 403.465C286.265 402.26 284.123 401.519 281.829 401.519C281.599 401.519 281.372 401.527 281.149 401.541C281.012 401.55 280.873 401.562 280.733 401.577C280.667 401.456 280.597 401.338 280.525 401.223C279.421 399.471 277.42 398.127 275.07 397.554C274.916 397.517 274.763 397.483 274.609 397.453C274.597 397.3 274.58 397.148 274.555 396.997C274.32 395.533 273.471 394.207 272.25 393.149C270.953 392.026 269.234 391.204 267.336 390.836C267.161 390.802 266.985 390.772 266.81 390.747C266.809 390.575 266.801 390.402 266.784 390.23C266.575 388.084 265.048 386.208 262.92 385.034C262.777 384.954 262.633 384.879 262.487 384.808C262.527 384.661 262.555 384.513 262.57 384.365C262.587 384.191 262.587 384.012 262.569 383.829C262.448 382.625 261.574 381.583 260.383 380.926C260.141 380.793 259.893 380.679 259.642 380.587C259.824 380.388 259.991 380.174 260.143 379.946C260.769 379.004 261.075 377.899 260.956 376.716C260.777 374.934 259.675 373.335 258.077 372.172C256.416 370.963 254.214 370.219 251.866 370.219C251.117 370.219 250.399 370.295 249.153 370.302C247.448 368.938 245.089 368.085 242.571 368.085Z" fill="white" stroke="#00160A" stroke-width="0.934762"/>
<path d="M271.7 404.115C274.764 404.115 277.248 401.631 277.248 398.567C277.248 395.503 274.764 393.019 271.7 393.019C268.636 393.019 266.152 395.503 266.152 398.567C266.152 401.631 268.636 404.115 271.7 404.115Z" fill="white" stroke="#00160A" stroke-width="0.934762"/>
<path fill-rule="evenodd" clip-rule="evenodd" d="M238.333 352.686C236.594 352.686 235.012 353.353 233.827 354.445C232.633 355.547 231.843 357.08 231.706 358.797C231.692 358.976 231.685 359.154 231.685 359.331C231.509 359.351 231.333 359.379 231.157 359.414C229.621 359.721 228.276 360.557 227.32 361.724C226.382 362.87 225.818 364.336 225.818 365.933C225.818 367.769 226.562 369.431 227.765 370.634C228.968 371.837 230.63 372.581 232.466 372.581C233.793 372.581 235.029 372.193 236.067 371.523C237.138 370.831 237.998 369.84 238.527 368.668C238.705 368.274 238.842 367.867 238.94 367.451C239.141 367.826 239.385 368.177 239.666 368.497C240.683 369.652 242.173 370.381 243.833 370.381C245.365 370.381 246.752 369.76 247.756 368.756C248.76 367.752 249.381 366.365 249.381 364.833C249.381 362.839 248.328 361.09 246.747 360.113C246.624 360.037 246.498 359.965 246.37 359.899C246.394 359.755 246.412 359.612 246.425 359.469C246.44 359.303 246.447 359.136 246.447 358.967C246.447 357.55 245.917 356.258 245.043 355.278C244.16 354.286 242.927 353.614 241.308 353.387C240.413 352.938 239.402 352.686 238.333 352.686Z" fill="white" stroke="#00160A" stroke-width="0.934762"/>
<path d="M237.6 373.314C240.866 373.314 243.514 370.666 243.514 367.4C243.514 364.133 240.866 361.485 237.6 361.485C234.333 361.485 231.685 364.133 231.685 367.4C231.685 370.666 234.333 373.314 237.6 373.314Z" fill="white" stroke="#00160A" stroke-width="0.934762"/>
<path d="M233.2 363.781C236.466 363.781 239.114 361.133 239.114 357.867C239.114 354.6 236.466 351.952 233.2 351.952C229.933 351.952 227.285 354.6 227.285 357.867C227.285 361.133 229.933 363.781 233.2 363.781Z" fill="white" stroke="#00160A" stroke-width="0.934762"/>
<path d="M228.8 357.914C232.066 357.914 234.714 355.266 234.714 352C234.714 348.733 232.066 346.085 228.8 346.085C225.533 346.085 222.885 348.733 222.885 352C222.885 355.266 225.533 357.914 228.8 357.914Z" fill="white" stroke="#00160A" stroke-width="0.934762"/>
<path d="M228.8 347.648C232.066 347.648 234.714 345 234.714 341.733C234.714 338.467 232.066 335.819 228.8 335.819C225.533 335.819 222.885 338.467 222.885 341.733C222.885 345 225.533 347.648 228.8 347.648Z" fill="white" stroke="#00160A" stroke-width="0.934762"/>
</svg>
